<svg id="907d4c65-1887-4092-92c6-11c9f9004cca" data-name="Bongo 1" xmlns="http://www.w3.org/2000/svg" viewBox="0 0 517.27 551"><title>Bongo 1</title><g id="46935821-4b65-4b69-b996-243f03d6e46f" data-name="SHAPE copy 15"><path d="M582.24,588.48v-.24c4.48-.7,8.34.46,13.44.48,5.32-9.08,11.45-35.35,8.88-49l-2.16-.48-1.92,12.24c-2.65,8.79-8.1,17.29-14.64,22.32,6.52-8.5,12.68-15.32,15.36-28.08C605.56,525,592.4,511.09,582,503c-3.52-2.72-8.52-7.8-14.16-7.92l-.48.72c.41,4.22,4.54,7.47,6.48,10.56,3.52,5.59,7,11.93,8.64,19.2,3.18,1.73,6.69,2,7.92,5.76a3.34,3.34,0,0,0,2.4.72c1.78-3.88-.57-9.84-1.44-13h.24c2.94,7.4,4.68,18.28,2.4,28.08-7.43,31.92-39.88,40.95-69.84,50.4-20.56,6.48-42.28,13.09-64.32,17.76l-58.08,7.92-43.92.24c-8.55,1.4-18.86.07-26.4-1.2l-19.92-1.2-20.4-1.44c-26.49-5.08-54.05-8.77-77.28-16.08-26.4-8.3-71.76-22.29-68.16-57.36l.24,4.08,2.16.48,2.88-7.92,7.2-8.88,4.56-12.72c1.46-3.33,4.68-6.72,4.8-11-3.85-1.76-8.9,5.07-11.28,7-7.75,6.17-20.87,19.61-18,35.76,2.81,15.82,11.74,20.15,19.44,30.24-7.67-5.23-16.6-13.69-18.24-24.72l-2.16-.48c-3.64,8.1,4.31,29.86,6.72,34.56,11,21.34,30.76,31.92,53.28,41.76,8.8,3.85,18.62,9.6,30.72,9.6,3.24-7.28.62-13.7,7.66-17l0,0h0c.36-.16.74-.33,1.16-.48,3,1.08,7.86,4.32,6.48,9.36l-2.4,4.56c-.63,3.26,1.09,5.8,1.68,8.16,2.94,1.31,10.12.87,13.68,1.92,7.19,2.13,15.1,3,24,4.32l23.76.48c5.81.88,13.79,2.14,19.92.72,2.54-4.54,15.2-27,22.08-13.2-.23,5.69-5.47,11.1-8.88,13.92v1.92c4.65,2.06,14.65.48,20.4.48,16.65,0,34.21.89,49.68-1.44,16.6-2.5,32.4-1.59,47.76-4.56,35.86-6.93,67.89-16.14,95-31.92,8.62-5,29.86-14.16,34.8-21.36v-1.44l-2.4-1.92,7.92,1.2c5.8,1.65,9.93,7.1,12.24,12.24,4.18,9.29,5,27.29,18.24,27.36l2.64-2.88v-1.44l-6-3.6C605.42,614,610.05,588.43,582.24,588.48ZM580.32,593v-3.12l.24,3.12ZM138.48,539.76l-2.4-.48-5.28,3.84c-3.87,5.63-.74,17.25,1,22.32a3.34,3.34,0,0,0,2.4.72c2.46-4.1.7-11,1.92-16.8C136.75,546.16,138.43,543.59,138.48,539.76ZM624,596.64c-2.48-12.85-1-42-15.36-42l-1.44,1.2c.34,3.53,3.13,5.16,4.08,8.16l1.2,10.8c3.2,10.66,7.46,22.53,7.44,36.72,1.43.69,3.88.78,6,.72C627.52,608.56,624.76,600.57,624,596.64ZM235.44,661.2c5.11,12.51,9.13,25.59,16.56,35.76l13.2,13.68h1.68a23.66,23.66,0,0,0,2.64-9.84c-12.49-7.37-22.72-33.92-27.6-49.44-.83-2.65-3-6.94-2.16-10.32l2.64-4.32c2.24-5.43-2.44-9.59-6.68-9.84l-.06,0C227.29,638.34,230.41,648.89,235.44,661.2Zm87.6,19,10.8-19.44c3-4.25,11.27-11.61,11.28-17.76-1.58-2.2-3.73-3-7.68-2.88-19.56,18.65-23.74,54.66-49.92,66.48-1.3,1.88-1.73,5.47-1.68,8.64,4.26,2,16-8.07,18.48-10.56A123.1,123.1,0,0,0,323,680.16Zm-97.2,161.76c1.39-3.07-.69-7.35-1.44-10.08-2.46-9-2.79-19.08-9.12-24l-1.44.24c-.94.48-1.12.84-1.44,1.92l-7.92-4.8c-.83-2.54-.52-4.6-1-7a2.2,2.2,0,0,0-1.44-1.44l-1.68-.24c-1.27,1-4,.57-5.28,1.2-1.5.72-1.07,2.58-1.92,3.84v4.8c-4,9.58,2.69,28.41,8.4,32.4C206.6,842.3,217.67,842,225.84,841.92Zm320.58,6.56c3.61.26,6.87.4,8.7.4,1.12-2.42.55-7.75.48-11-3.65-2.28-18.69-4.78-24-4.8-1.55,3.28-2.19,8.67-2.16,13,2.09,1,8.48,1.8,14.54,2.3l2,.1Zm25.74-4.88-1,5.28c-7.78,2.47-16.78,1.23-24.78-.4L544,848.3l-7.34-.38c-2.8-.53-8.46-2.09-11.76-.72-2.68,1.11-4.59,7.77-4.8,7.92h-1.92l-7.44,8.16-12.48,10.08c-16.41,12-38.13,18.39-60.72,24.24-14,3.64-29.17,4.13-44.4,7L372.48,906c-5.92.08-12.08-.56-18-.48-.75.35-.24,0-1.68-.24-3.51-.46-10.78-.69-14.16,1-1.74.92-2.3,3.53-3.36,5-3.3,4.68-8.46,8.06-8.64,15.6-3.83,2.1-6.56,2.74-11,3.6l-4.08-2.88-1.44-7.44c.39-1.57,1.89-2.09,1.44-4.32-.4-.81-.38-.81-1.2-1.2-1.07-.47-.56-2-.67-2.4h-.29c.19-.14.26-.11.29,0h1.15c0-.06-1.19-.27-1.69-.4a4.41,4.41,0,0,1-.23.64c-1.4.55.75-1.91,0-.72,0,0,.1,0,.23.08,1-3.55-1-9.43-1.19-13.28l-7-1.44-20.16-7c-20.19-8-36-19.29-48.24-35.28h-1.92c-1.58,3.44,5.23,20.41,6.72,24C245.3,898,263,908.5,281,917.52c5.65,2.83,13.71,8.05,21.12,8.16l1.44-4.8c1.55,3.84.42,6.36.72,10.32H302.4a3.34,3.34,0,0,0-.72,2.4c7.42,9.87-5.28,22.24,11,28.08,22.95,8.21,26.84-22.68,41.52-27.12,9.07-2.74,18.37,2.11,28.56.48l25.44-2.16,28.08-5.52,10.56-1.2,10.32-4.8c9.67-3.85,20.5-6.05,28.32-11.76,6.28-4.59,12.26-10.19,18.48-15.12l9.84-9.6c7.1-5,34-3.31,43.68-1.68,6.5,1.09,16,.52,18.48-3.36,1.61-2.51,3.65-24.94,1-25.92l1.68-2.16C580.53,847.57,575.55,843.63,572.16,843.6Zm-347,7.44c-5.09,4.5-12,.58-18.48.24-.95,2.05.24,4.29.72,6.24,1.56,6.38,3.36,15,13,13,7.17-1.54,9.54-10.8,7.2-19Zm339.6,47.52-11.52-3.12c-.74,1.57-.48,4.65-.48,7,0,9.21,3.51,19.78,14.4,16.56,6.6-2,7-12.73,6.72-21.6C570.92,896.08,568.38,899.13,564.72,898.56Zm-234,76.32c-4.25,5.1-12.53,3.1-19.44,2.64-.76,1.64-.08,3.54.24,5.28,1.48,8,4.79,14.82,15.6,12,7-1.82,7.74-11.17,6-19.44Z" transform="translate(-126.95 -447.31)" fill="#4d4b4a" fill-rule="evenodd"/></g><g id="4939bf61-c526-4fd6-b564-9a80fca42207" data-name="SHAPE copy 14"><path d="M618.48,613.68l-4.56.48c-1.95,4.31,3.21,11.61,4.32,15.6,3,1.37,5.91.85,7.68,3.36,2.86,4,1.85,11.22.24,15.84-3.85,11-10.41,20-16.08,29.52-8.69,14.55-16,30.47-24.72,45.12-7,11.7-15.65,23.94-19.92,37.92-2.19,7.18-1.71,15.5-3.12,23.76a382.39,382.39,0,0,0-5,63.84c2.7,1.28,9,.94,12,.24,2-4.38-1.09-17.42,0-24l3.12-25.68c1.55-9.52.44-18.43,3.36-25.92,4.6-11.81,11-21.91,17-32.16,8.08-13.67,13.78-28.7,22.08-42s17.66-27,23.76-42.48C646.36,637.53,639.67,613.65,618.48,613.68Zm-8.64,21.12c1.28-2.87-4.54-15.95-8.16-16.08C597,625.34,600.63,638,609.84,634.8ZM204.24,788.16c1.11,6.32.68,13,1.92,18.24,2.84,1.48,8.2,2.4,12,2.4,1.5-3.37-1.5-10.46-2.4-13.92-3.22-12.46-6-23.92-9.36-36-6.17-22.37-9.79-45.55-16.56-67-4.29-13.56-10.55-25.45-15.84-37.44l-6-13-2.4-7.44-7-5-8.64-8.4h-1.68l-.48.72c.19,4.38,3.08,7.67,4.56,11L162.48,654c10.16,23.09,21.5,45.58,31,69.36C200.56,741.26,200.44,766.55,204.24,788.16Zm101.28,81.6,5,37.44c1.11,6.77-1.46,18.21,3.6,20.88,3.07,2.51,7.91-1,10.08-1.92,1.62-2.45.66-8.94,0-12.72L320.4,879.6c-1.82-10-.54-21.19-2.88-30.48-8-31.65-18.13-61.5-28.56-91.2-4.25-12.1-7.1-30-3.84-45.36l1-6.24,9.36-6.48v-2.4c-3.87-3.63-6.26-6.65-14.16-6.48C277.67,694.1,273,696.4,271,701c-5,11.2-3.21,32.2.24,43.68C282.09,781,297.31,813.55,304.32,853Zm-81.6-25.2c-9.83-1.76-15.69,1.33-23-3.84-2.28-1.61-2.75-6-5-7.2l-1.68-.24-.48.24c-3.64,6.1,5.18,12.78,10.08,13.68.24,1.28.24.64.48,1.92,5.83,3.84,14.81,5,21.12,2.64C226.25,848.8,226.16,846.23,223.92,844.56Zm355,27.12c-1.31,2.69-.83,8.32-3.12,10.08-6.38,4.9-21.08,1.55-30.24,1.44l-.48,2.16c3.14,3.31,9.38,4.95,15.84,4.8v.24c-3.53,1.05-7.45.41-7.44,5.52l.24.48c1.07.6,2,.28,3.6.72,8.69,2.33,9.43,3.15,16.8-2.16v-5.52c8.22-4.73,12.77-4,8.88-16.32A6.48,6.48,0,0,0,578.88,871.68ZM565.44,890.4l-1.68,1.44-1.44-1.2-.48-.24.72-.24h2.88ZM310,976.24a1.68,1.68,0,0,1-.27-.34C309.89,976.4,309.94,976.43,310,976.24Zm28.89-24.4c-6.1,9.08-15.45,14.22-28.8,9.6-4.71-1.63-6.84-2.23-7.44-7.92a3.34,3.34,0,0,0-2.4-.72c-9.46,14.27,13.41,21.81,27.6,18.48l-1.2,2.4-2.64,1.2c-3.57-2.48-8.82-1.84-13.2-.72l-.48,1a4.52,4.52,0,0,0-.33,1.12c2.69,2.77,15.44,1.92,18.81-.16.72-1.44,2.4-1,3.12-2.4,1.37-1.66,3.47-1.8,1.92-4.56,5.2-3.94,9.45-6.45,8.4-16.08A3.9,3.9,0,0,0,338.88,951.84Z" transform="translate(-126.95 -447.31)" fill="#bec7cc" fill-rule="evenodd"/></g><g id="db1dac94-81b1-4d22-abe3-d128d7e85049" data-name="SHAPE copy 16"><path d="M214.8,601.92c42,14.27,93.81,19.44,149,19.44,21.54,0,42.35-.08,61.44-3.36l29.52-3.6c24.78-5.36,49.06-11.51,71.76-19.2,23.9-8.1,50-15.35,61.2-36,3.79-7,8.73-25.75-1-30.48l-1.92-.24c-1.7,3.87,2.46,9.93,2.64,14.88h-.24L581,526.8c-9.74-24.54-23.39-43.44-47.28-53.52-14.44-6.09-33.31-7.52-49.2-11.52C449.69,453,409.37,449.11,366,449.52l-16.32.72-42.48,3.6C242.86,466,169.46,476.19,156.72,539.28l-.24-1.2-2.4-.48c-3,5.36-7.72,13.46-5.76,22.32C153.4,582.94,192.6,594.38,214.8,601.92Zm-30.72-61.2c14.31,18.75,49.71,28.82,78.08,34.53q2.1.35,4.23.66l41.29,3.69,17.76.24c21.55,3.42,48.94,2.43,69.6-1l31.44-2.4c19.88-3.69,39.84-7.28,58.08-12.72,23.15-6.9,46.2-12.75,64.08-24.72,10.53-7,18.07-14,13.68-31,5.6,7.91.1,20.15-4.32,24.72-13.94,14.42-36.37,20.23-57.36,27.6-20.7,7.27-44.77,11.63-67.92,16.08l-36.24,4.32-9.6.24a219.34,219.34,0,0,1-62.16.24L291.6,579.6c-8.32-1.34-16.87-2.43-25.21-3.69l-1.67-.15-2.56-.51c-10.36-1.66-20.28-3.7-28.88-6.93l-17-4.8c-15.87-6.23-35.07-16.45-38.4-35C180.3,532.67,181.3,537.07,184.08,540.72Zm423.36,19.2h-1.68c-3.19,5.61-2.84,14.05-4.8,20.64-1,3.36-3.39,5.19-3.36,9.84,2.18,2.64,5.1,4.63,7.2,7.44h2.4C612.72,589.41,613.35,567.74,607.44,559.92ZM223,644.88l-12.24-3.6c-21.44-8.28-43.37-17.56-57.36-33.36-5.22-5.89-10.75-13.41-13.68-21.36-1.23-3.32-.81-10.51-5-10.8-3.89,8.66,6.39,28.87,9.36,33.36,14.05,21.24,36,32.33,60.72,43,8.1,3.48,17.34,9.26,28.08,9.36,1.14-2.66-3.39-11.35-3.84-15.84C227.48,644.93,224.84,645.28,223,644.88Zm364.8-46.08c-2.12,3-5.43,4.37-8.4,6.48-11,7.79-23.19,14-35.76,20.4-28.21,14.38-60.14,22.35-96.48,29.52-18.19,3.59-37.57,2.51-57.12,5.52l-16.08.24c-12.48,1.9-26.57-.35-38.88-.48-2.2,3.19-6.32,8.94-6.48,13.44,4.91,2.23,12.95.28,18.72,1.2a100.21,100.21,0,0,0,28.8-.24l18.24-.48,16.8-1,56.16-7.2c29.77-6.5,55.46-16.15,80.88-26.16l16.8-6c7.86-3.38,14.32-8.92,21.12-13.44,5.16-3.43,12.12-6.51,12.48-14.64C596.2,602.76,593.34,598.82,587.76,598.8ZM287,656.88c-8.89-1.41-18.14-.67-26.4-2.4L244.8,650.4c-1.8,4,2.81,11,3.84,14.88,3.63,1.92,9.07,1.86,13.44,2.88q23.28,5.42,53,5c2.34-3.38,6.57-9.61,6.72-14.4C314.56,655.37,296.66,658.4,287,656.88Z" transform="translate(-126.95 -447.31)" fill="#ece9d4" fill-rule="evenodd"/></g><g id="8c9039f8-20c3-4f63-9afa-11db752e46a4" data-name="SHAPE copy 17"><path d="M562.32,636.72c-3.09,2.42-8,2.78-12,4.32l-18.48,7.2a381.12,381.12,0,0,1-71.52,21.12l-54.24,6.48c-8.63,1.36-16.34.45-24.24,1.68L344.16,677c-5.42-.84-12.88-1.22-18.24-.24-9.15,15.63-20.74,34.89-39.6,40.56-1.95,4.24-.78,13.68,0,18.24,2.65,15.52,6.47,26.88,11,39.6l22.8,78c1.71,8.08.7,16.63,2.16,25.44,2.2,13.28,2,27.5,4.08,40.56a3.61,3.61,0,0,0,1.92.48c2.73-2.1,8.91-10.85,10.32-14.16l7.92.48,31.68-.48,32.64-3.6c19.7-4,39.5-7,56.64-13.68,15.68-6.1,28.87-13.19,40.8-22.8,5.91-4.76,11.73-16.43,19-18.72,1.6-2.74,1.9-14.61,2.88-18.48,4.33-17.11,6.65-35.39,10.32-53.76,6.78-34,11.7-68,18.24-103l6-34.32Zm-262.08,203c-5.57-18.79-9.92-37.61-16.8-55.44-8.12-21-17.15-42.21-16.56-71.52-14-8.18-26.79-31.43-31.92-48.48l-8.16-1.44L214.08,659l-20.4-9.12c-3.39-1.5-6.69-4.55-11.28-4.56-1.6,3.51,3,16.94,4.08,20.88l13.92,57.12,21.12,88.32c3.76,14.74,4.9,31,11.76,42.48,9.48,15.92,25.8,25.29,43.68,32.88,7.74,3.29,20.38,9.44,30.24,9.36,1.5-3.52-.73-11.24-1.44-15.12C303.34,868.07,303.86,852,300.24,839.76Zm-29.76-140.4,5.76-6.24c6.17-4.38,16.52-3.34,19,3.84l2.4.48c3-2.85,15-17.5,15.12-21.84-3.85-1.77-14.92.15-20.16-.72L251,668.16l-.48.72c.62,12.06,12.5,22.65,18.24,30.48Z" transform="translate(-126.95 -447.31)" fill="#b07b53" fill-rule="evenodd"/></g><g id="3ad3e8a3-a31e-4b1d-b592-3384abc4b2a5" data-name="SHAPE copy 13"><path d="M637.68,619.92c-2.07-2.8-4.59-6-8.16-7.2-1.09-8.05-3.09-16.87-4.32-23.76-2.67-15,1.14-36.73-17.28-36.72.44-28.91-14-45.76-32.4-56.64-7-4.11-14.88-6.5-21.36-11-6.85-4.79-13.51-10.72-21.84-14.16l-14.4-3.84c-13.44-4-27.7-6.36-42.48-9.6-73.32-16-169.72-11.35-235.2,8.64-27.87,8.51-51.71,18.89-68.4,38.4L161,510.72c-10,7.08-18.21,14-22.56,26.88-2.84.61-6.39.89-8.4,2.4-1.59,1.2-1.55,3-2.16,5.28-3.21,12,2.44,17.56,4.08,26.64l-.72,12.72a78.71,78.71,0,0,0,4.56,16.08c14.31,34.11,30.65,65.94,45.12,100.08,4.5,10.62,9.75,21.07,13.2,32.64,1.89,6.36,1.51,13.85,2.88,20.88l5,41.28c-8.94-2.18-14.88,6.17-13,16.56l4.32,17.52c.45,2.72-1.19,2.88-1.68,4.32-2.35,6.87,6.88,12.71,11.28,13.44,2.53,9.69.68,14.87,6.24,21.84s17.17,3.29,19.92-3.6h.24c2.11,6.24,3.42,12.3,6.48,17.52,14,23.88,38.7,34,64.8,45.84l.24,21.6-4.08,3.6c-4.74,8.76,4.83,15.83,10.08,18.24,1.72,9.85,1.48,20.92,9.36,24.48a17.92,17.92,0,0,0,10.56,1c12-2.59,11.31-15.23,8.16-26.64,4.3-5.18,16-11.51,7.44-21.6,6.2-12.7,17-14.38,34.32-11.52,6.77,1.12,13.83-.73,19.2-1.68l11-.48c26.65-5,54.18-9.28,74.16-21.12,9.68-5.73,18.09-12.81,26.64-19.68,4.92-4,8.53-9.43,15.36-11.52,5.71-1.75,13.42-.23,19.68,0,1,4.6,3.78,7,8.4,7.92-.26,13.06-2.1,24.39,7.92,28.56,1.48.61,3.63,1.86,6,1.44,11.77-2.08,11.33-16.83,11-31,2.43-2.49,7.1-3.14,9.12-6,3.7-5.24.14-14.17-5.28-14.88-2.13-11.28,6.17-26.82-7.2-28.32v-11l.48-12.72,3.12-23.76c1.15-6.85.59-13.54,2.4-19.44,3.3-10.74,12-24.39,17.52-33.84,9.47-16.18,16.61-33.32,26.16-49.44l12.72-20.88C643.74,655.84,649.14,635.41,637.68,619.92ZM610.32,555.6c5.51.86,6.45,6.14,7.92,11,4.09,13.61,3.37,30,7,43.68V611l-4.08-.24c-.92-9.62-1.57-19.12-4.08-27.36l-3.6-9.84-1-10.08-3.36-6.24c-.72-.59-.61-.54-.72-1.2ZM240.24,650.16c6.1,17.6,12.74,34.77,23.28,48l4.8,3.6-1.92,7-.48.72c-14.67-12.08-21-28.35-28.8-47.52-2.48-6-7.34-13.68-5.76-23,.8-4.72,3.16-7.29,4.8-10.8,9.23,1.4,3.19,8.73,2.4,13C238,644.13,239.43,647.83,240.24,650.16Zm91.44,11.52c-10.41,17-17.83,35.17-33.84,46.56-3.11,2.21-6.57,5.29-10.8,6.24l.72-6.48c20.57-8.49,29.29-36.55,40.56-55,2.74-4.48,6.62-7.71,9.6-11.76,3.19-.06,4.52.6,6,2.16C342.89,650.61,335.08,656.12,331.68,661.68Zm3.6.48c3.75-1.71,16.13,0,21.6,0,17.47,0,36.4,1.18,52.32-1.44l41-4.8c39.39-7.9,74.15-16.88,103.68-34.08,7.67-4.47,31-15.15,34.32-21.84,4.61.33,6.82,3.81,9.12,6.48-.88,7.33-8,10.34-13,13.68-6.4,4.27-12.51,9.53-19.92,12.72l-18.72,6.72a523.26,523.26,0,0,1-73.92,24.48c-12,3-24.83,2.85-37.92,5-12.63,2.12-25.72,2.23-39.12,4.32l-18.72.24c-5.4.87-13.38,2-19.92,1l-26.4-1.44ZM314.4,672c-12,0-24.07.59-34.56-1.44l-29.76-5.76-4.8-13.44c8,2.59,16.75,4.15,26.64,5.76l48.72,2.4Zm-62.64-2.64c19.75,2.2,36.54,7.24,59.76,7v.24l-13.2,18.24-1.68,1.68c-6.29-10.69-21.54-9-26.4,1.68l-.48.24C262.91,691.32,253.61,680.82,251.76,669.36Zm19.68,33.84c2.24-5.43,6.64-7.21,10.32-11,6.34-.06,9.84,2.41,12.48,6-.82,3.91-7.18,4.26-9.12,7.2L283,716.88c-4.74,27.48,10.24,56.2,16.56,76.32,6,19.19,12.82,38.14,17.28,58.56l4.08,42.48L324,924.72c-2.88,1.26-5.28,3.6-9.36,2.4-3.75-5.32-1.75-14.27-3.12-22.32l-5-37.2L305.28,851c-7.35-37.69-21.33-69.48-32.16-104.16C269.6,735.62,266.41,715.41,271.44,703.2ZM311,927.6c1.89,2.77,8.5,4.41,12.48,2.16,4.21-2.38,14.61-17.78,16.32-22.8l13.44.48v.24c-15.29,5.12-14.37,26.89-35,26.88-3.47,0-7-.2-9.36-1.44-5-3.59-2.64-13.9-1-18.72l.48-.24C309.17,918.73,308.85,924.4,311,927.6Zm27.12-23.52-10.08,14.4-.48.24c-4.6-19.65-2-43.8-6-64.08-3.08-15.43-8-29.38-12.48-43.68-4.56-14.56-8.12-29.75-13.44-43.44-4.07-10.46-7.45-21.58-8.64-34.56v-14.4s11.68-6,13-7c6.9-5,24-24.71,26.4-33.36,5.15-2.51,18.05.15,24.24.24,15.8.23,32.86.83,46.8-1.44l12-.24,58.08-7.44a407.78,407.78,0,0,0,67.2-20.88L552,641.76c3.89-1.52,8.26-1.78,11.28-4.08l-9.36,56.4c-7.24,31-9.66,62.16-16.56,93.36L531.84,817c-2.07,8.69-5.23,17.35-5,28.08-2.22,2.3-5.43,3.46-7.44,6-7.13,9-14.82,16.84-24.72,23C471.45,888.6,441,895,409.2,901l-17.76,1.68C376.05,905.3,354.91,905.72,338.16,904.08ZM531.6,838.32c.92-.74,17.07,1.92,19.44,2.64l.48-.48c-4.25-2.87-12.26-4-19.2-3.84v-2.4l21.6,3.84c1,2.1.55,6.67.48,9.6l-23.76-2.4Zm1.2-7L547.92,751c6.78-26.09,8-52.85,13.2-80.64l6.24-34.08c9.06-5.51,28.42-14.23,32.4-23.76l.48-.24,1.68,3.84c-1.15,2.51-4.39,2.78-5.28,5.76-1.9,6.36,3.42,14.93,7.68,16.08,2.82.76,5.43-.84,7.2-1.44,3.62,3.43,7,4.08,12.24,1.92l1-1c2.32,6.12-1.73,13.27-4.08,17.28l-22.8,39.6c-7.24,12.37-14,24.75-21.12,36.72l-3.6,8.64c-1.22,1.8-3.74,2.46-4.56,5.52-1.8,6.71-5.48,14.59-7.44,22.32L559,787.44c-2.81,14.27-4.12,31.07-4.32,47.52Zm69.6-211.68c3.37,1.76,5.2,10.31,6.72,13.92l-1.44.72C600.16,634.21,600.2,624.92,602.4,619.68ZM619.92,636c-10.75-.3-13.25-22.52-18-30.24-2.49-4-6.08-8-11.28-9.36l-7.44-1.2c-1.56-1-1.89-3.54-1.2-5.52,24.88-.18,23.51,22,32.64,37.44,2,3.29,4.71,3.7,7.2,6.24l.48.24A4.38,4.38,0,0,1,619.92,636Zm-6.24-23.52c-1.67-1.73-4.45-9.2-5-12a39.54,39.54,0,0,0,5.28-15.36c2,2.57,3.25,20.07,3.6,25.2ZM606,596.88c-2.45-1.88-3.72-5.21-6.72-6.48-1.35-3.09,1.75-6.15,2.64-8.64l4.56-20.88C611.61,565.56,611.43,592.71,606,596.88ZM199.2,485.52c29.27-17.35,70.6-23.79,109.92-30.72l55.2-4.08c50.19,0,93.62,5.31,133.2,15.36,14.27,3.62,29.89,4.45,41,11,23.87,14.11,32.22,27.33,43,54.48L588,548.88l.48.24c2.53-5.67-1.45-15.4-3.12-19.44v-.24h.24c9.29,5.37,5.12,22.49.72,29.76-11.54,19-35.71,26.8-58.56,34.56-25.1,8.53-51.31,14.89-79,20.4L423.36,617c-18.58,3.28-38.61,3.12-59,3.12-52.09,0-100.9-4.4-141.36-17-21-6.55-40.75-13.09-57.12-24-7.2-4.8-14.76-10.8-16.56-20.88-1.57-8.8,4.18-13.46,5.52-19.68l.72-.48-1.68,7v.24l.48.24c3.84-3.1,4.67-10,6.48-15.12l9.36-19.2C176.59,500.23,188.28,492,199.2,485.52ZM139.92,565a39.47,39.47,0,0,0,10.32,13.92c18.32,14.79,41.64,26.41,67.44,33.6l19.44,3.6c16.61,4.08,33.27,8.79,54.24,8.4l-14.16-1.92L246,616.08c-36.11-9.17-70.18-16.65-92.64-39.12-16.16-16.17-19.13-32.06-3.84-51.36a71.63,71.63,0,0,1,17-15.12L161,521.76,157,533.52l-7.68,9.6-1.92,6v.48l-.48-8.88h-.24c-7.53,6.86,1,24.32,4.08,29,13.7,20.67,42.05,28.49,68.16,36.72,21.62,6.82,47.74,9.75,72,14.4l24.24,1.68,16.32,1c7.57,1.32,17.86,2.54,26.4,1.2H368.4l36-.48,56.88-7.92c24.28-5.6,48.54-12,71-19.92,26-9.11,52.6-17.59,61.68-43.44,4.19-11.93,3.9-33.67-6-38.64l-.24.24c2.35,4.61,4.49,9.14,4.32,16.32-2.51-2.59-3.65-5-8.16-5.76l-5-12.72-10.56-16.32c7.77,3.74,14.64,8.17,19.68,14.64,3.76,4.82,8.38,9.23,10.8,15.36,4.63,11.73.06,26.77-4.8,34.8-12,19.75-31.35,28.24-54.24,37.2l-15.12,5.28-.24.48c11-.21,20.32-5.31,28.56-8.88,21.83-9.45,50.14-24.06,50.16-54.72h.24c4,17.8-5.62,32.77-8.16,47-4.91,1.18-13.17-3.13-15.6,1.68-3.32,3.83,2.43,8.71,4.08,10.32-3.54,4.73-10.43,7-15.6,10.08-10.9,6.53-21.72,12.69-34.08,18-17.49,7.52-35.55,14.81-55.68,19.92-40.4,10.26-89.75,11-140.16,10.56,2.15-3.12,13.79-13.51,7.2-18.48-8.79-6.63-20.52,8.38-21.84,15.12-4.8,2.48-15,.41-20.64-.48-10.54-1.67-21.6.6-31.44-1.2-9.42-1.73-17.18-5.8-27.6-5-.66-1.79-2.45-4.72-1.68-7.44l2.4-4.32c1.1-4.39-2.47-8.9-4.8-10.08-8.2-4.17-12.55,10-12.48,16.8-13.26-.57-23.82-7.15-33.84-11.52-28.88-12.59-56-30.14-55.44-72Zm-6.72.24c-1.85-4.53-5.34-16.31-1.2-21.6l4.8-3.12c.28.38.48-.13.48.72l-2.4,7.92C133.75,555.09,135.8,561.18,133.2,565.2Zm2.16,10.56,3.36,12,5.52,10.56c12.23,19.62,33.52,30.79,56.16,40.08,8,3.27,16.51,8.07,27.36,7.92A64,64,0,0,0,232.08,660v.24c-12.54-1.28-23-7.66-33.12-12C170.79,636.17,134.81,615.78,135.36,575.76ZM179,643.92c1.44,9.91,4.18,18.15,5.52,27.36L169,637.92ZM197.76,732c-8.83-29-23.69-54.81-35.52-81.6l-13.68-29.28,8.88,8.64,7,4.8,2.64,8.16,7.44,15.84c14.16,27.89,20.41,59.62,29,93.84,4.59,18.2,11.44,36,13.92,55.2l-9.84-1.68c-2.67-5-1.21-13.06-2.4-19.68C202.11,769,202.59,747.85,197.76,732Zm-4.32,71c.82-2.88,5.77-4,7.92-5.76h1l1,7.44-3.36-2.4h-1l-.48,1c4.08,8.28,18.8,4.19,20.64,12C212,814.94,191.29,810.56,193.44,803Zm-.24,4.56c5,2.68,9.64,6.11,15.6,7.92l10.8,1.92c.71.55,5.48,20.81,5.52,23.28-6.56.08-15.17.3-20.16-1.68C195.71,835.37,193,820.69,193.2,807.6Zm1.2,26.64,5.52,6.48c5.1,3.83,16.94,4.13,25.44,4.08-1.5,1.39-4.82,1.19-7.68,1.2C208.5,846,193.16,843.45,194.4,834.24Zm11.76,14.64H225.6v.24c-4.32,5.82-12.39,2.47-18.72,1.2Zm10.08,20.4c-6.54-1.45-7-9.92-8.88-16.08v-.72c5.5,1,14.51,4.26,18.48-.48C231.14,857.31,224.76,871.16,216.24,869.28Zm7.44-53.76L210,756.72l-27.12-110.4c12.3,4,22.88,11.31,35.52,15.6l15.6,3.36,6.24,14.88c5.42,12.32,13.23,27.74,25.44,33.36,0,30.62,9.12,52.39,17.76,74.64l7.44,24.48c3.41,10.78,7.31,21.87,9.84,33.36l1.68,19.68,4.08,29.52c-9.92-.44-19.78-5.58-27.84-8.88C260.86,879,244.57,869.79,235,854.4,228.33,843.78,227.19,829.55,223.68,815.52ZM241,883.92c-4.58-7.75-7.47-18.87-9.84-28.32l12.24,14.16c13.91,10.87,28.66,18.44,47.28,25,5.05,1.77,9.78,4.06,16.08,4.56L308.16,911c-3.18,3.24-6.14,7.16-6.48,13.2l-.48.24C277.37,915.19,253.22,904.67,241,883.92ZM311,975.12v-.72c6,.35,15.07,1.53,19.2-1.44h1.2c-3.89,5.27-12.05,4.61-19.68,3.6Zm20.88,14.64-4.08,3.6c-11.08,4.64-15.3-5.62-15.84-14.64,6.3,1.7,16,1.64,19.44-2.88C333.25,977.29,333.07,987.56,331.92,989.76Zm-31.44-35.28.72-.48,2.16,6.24,6.24,2.4c12,4.23,25.77-.11,30-9.84l1.44.72C344.72,978.51,292.17,974.77,300.48,954.48ZM565.92,918c-11.48,2.83-12.23-12.18-12-21.36,5.84,1.49,11.93,4.19,18.48,1.44h.24C572.85,906.52,572.46,916.39,565.92,918Zm6.72-23.76c-2.2,5.58-13.8,1.55-17.76.72l-.72-2.88,10.8.72,7.92-1.44Zm7-21.36,1.92.72c10.67,17.89-29.6,19.32-35.28,11,1.83-.67,4.92,0,6.72.24,7.57,1.17,19.64,1.3,24-2.4C578.87,880.87,579,875.7,579.6,872.88ZM577.68,851c-2,2.86-6.06,4.49-9.6,5.76l-.48.72a13.77,13.77,0,0,0,9.36-2.64c1.09,3.3.08,7.78-.48,10.8-.91,4.93.62,12.11-2.64,14.64-3,2.33-11.38,2.59-16.56,1.68-9.69-1.71-22.33-2.17-32.4-.48-3.29.55-6.69-.35-9.12.72-4.94,2.16-7.57,7.16-11.52,10.32-6.29,5-12.4,10.6-18.72,15.36-7.44,5.6-17.44,7.85-26.88,11.52L446.4,925l-11.52,1.44-28.56,5.52-25.92,2.16c-9.44,1.52-18.55-3.26-27.36-.48-14.32,4.52-16.52,31.39-36.72,27.6-3.59-.67-6-2.56-9.12-3.6-3.35-5.6-2.78-16.37-2.64-25.2,2.12,1.61,3.88,3.06,7,3.84,27.14,6.86,27.77-21.19,43.92-28.8l28.56-1c21.13-3.42,41.31-4,60-9.12,19.25-5.3,38.32-11.15,52.8-21.36l14.64-11.76,7.2-7.92,6.72-.48c11.56-2,21.66,3,31.92,1.68v-.24c-11.31-1.8-22.61-4.39-36.24-3.36l4.32-5.52c3.88-1.93,27.38,2.63,31.68,3.36,8.47,1.44,14.93.81,15.84-7C575.39,846,577.63,847.32,577.68,851Zm31.92-145.2-17.52,34.32c-6.48,11.06-14.08,22-18.24,35.28-2.56,8.17-1.34,18.21-2.88,27.84a230.24,230.24,0,0,0-2.4,44.88c-2.92,1-6.65.51-10.08.24.06-21.46,1.74-44.25,5-63.12,1.37-7.86.78-15.69,2.88-22.56,4.66-15.23,14-28.31,21.6-41,9.57-16,17.35-33.42,27.12-49,5-7.94,10.59-16.38,13.2-26.4,1.47-5.65.69-12.9-2.88-15.6-1.6-1.22-4-1.26-6.24-1.92l-4.56-12.48v-1c25.39-5,29.74,25.24,21.84,43.68C629.23,676,618.61,690.56,609.6,705.84ZM235.2,570.72c15.45,6,36,6.66,54,9.84l23,1.2L336,583c15.05,2.34,34.73,1.48,49.2-.72l11-.24,36.48-4.32c23.54-4.21,48-8.68,69.12-16.08,20.48-7.17,50.63-15.33,60.72-32.4,4.85-8.2,2.37-18.33-1-25.92-1.27-2.88-2-6.12-5.52-6.72,2,6.22,5.44,11.24,6.72,18.48,1.76,9.94-5.86,16.22-10.8,19.92-15.58,11.66-35.15,17.67-56.16,24.24S451.48,570.41,428.16,575l-32.88,2.64c-21.7,3.54-48.7,4.38-71.28,1l-17.52-.24-39.84-3.6c-13.25-2.3-25.4-6.21-36.72-10.08L217.2,561.6c-15.59-5.9-43.2-21.64-39.12-46.08L181.2,504c-7.46,4.46-6.36,22.58-2.88,30.72C187.86,557,212.06,561.75,235.2,570.72Z" transform="translate(-126.95 -447.31)" fill="#1c1c1c" fill-rule="evenodd"/></g><g id="68401119-4d0b-4a1f-a942-36d9e5314ed1" data-name="SHAPE copy 3" opacity="0.3"><path d="M186,589.68c9.65,4.26,18.78,9.47,29.28,13.2l21.6,5.28c18.06,4.6,36.7,7.46,56.64,10.8l36,1.92,19.2.72,14.64.24c11.07,0,21.21.08,31-1.44L435.6,618c22.83-4.08,46.29-7.23,67.2-13.68l14.64-5.52c20.94-6.38,40.46-14.8,57.36-25.2,5.34-3.29,15.06-7.93,16.08-15.12v-.24c-.93-.62-1.94-1.41-3.6-.72l-6,6.24c-3,2.41-6.25,4-9.6,6.24-19.75,13.06-45.32,20.91-69.36,29.52-11.67,4.18-23.71,5.33-36.48,8.16l-29.76,5.52-17.52,1.44-31.2,1.44c-9.32,1.54-29.81,2.34-40.08.72-9.5-1.5-19.09.19-27.84-1.2-11.35-1.81-22.55-.23-33.12-2.16-18.32-3.35-36.25-6.71-53.28-11-8.08-2-15.59-3.45-22.8-6.24l-28.32-13.68c-7.08-3.11-16.85-6.46-21.36-12.24-3.4-4.36-8.15-11.2-6.72-19.92.6-3.67,1.69-7.8,1-11.76l-1.68-1c-6.18,6.13-4.15,23.79,0,30.24C160.31,579,173.31,584.07,186,589.68ZM302.64,940.32c1.1,6.56,1.25,14.38,2.16,20.88l1,.48h1.68c4.06-6.65-.19-18.59-.24-27.36,1.74,1.39,2.49,2.87,4.8,3.84l1.68-.24.48-2.16c3.65,1.17,7.34,1.75,11,.24l.48-1.68-.24-.72c-1.86-1-3.53,0-5.76-.24-3.49-.37-9.21-2.83-10.8-5.28l-3.12-8.4-.72-.24a9.36,9.36,0,0,0-1.44,3.12l-7.44-3.12-16.8-6.24L269,905.76c-8.47-6-18.57-11.68-24-20.64-5.69-9.39-5.85-23-9.12-34.8-6.54-23.71-11.54-48.64-17.28-72.24L216,762.72l-14.4-54-7.92-37-5.28-20.64-2.88-7.44L223,658.32c2.91,1,11,4.71,13.68,3.36,2.84,13.89,14.94,44.11,28.8,45.6a3.37,3.37,0,0,0,1.44-2.4c-3.16-4.08-8.84-5.81-12-10.08-4.86-6.57-8-15.88-11.28-23.76-2.94-7.17-7.95-26.91-13.2-30.24-1.62.91-6.26-.76-8.64-1.68L199,629.76C167,616.07,138.51,599.14,142.08,551l-1-.72h-.72c-7.42,8.08.86,36,4.08,42C156.12,614,172,623.6,195.12,633.6l25.44,10.08,8.16,2.64,1.92-.48,4.32,11c-13-1.44-24.62-8.38-35.28-13l-15.12-5.52c-25-12.15-43.55-31.62-48-64.56l-1.44-.48c-2.87,2.7,2.48,20.63,3.6,23.52,8,20.61,24.25,35.86,43.44,45.12-.27,5.14,1.93,8.64,3.12,13L189.12,671l6.72,32.88,9.84,37.68c3.72,12.49,5,25.34,8.64,38.64l13.44,55c4.06,16.35,5.41,39.47,13.2,52.32,3.4,5.62,8.59,9.48,13.68,13.44,14.36,11.17,28.27,20.33,48,26.4ZM508.56,650.64c-10.34,3.24-21.22,4.33-32.64,7-15.75,3.63-31,6.26-48.24,9.12L382.32,671l-29.76-.24c-5.92.91-22.24-2.11-24.48,1l-.24,1.44c6.39,3.32,18.83,1.76,27.36,1.68,15.59-.15,33.24,1.58,49-1.2,9.67-1.71,21-1.39,31.2-3.36,8.35-1.61,17.12-3.25,24.72-4.8,5.18-1,9,1.05,13.2,0,1.26-.31,11-2.94,12-3.6l1-1.68,9.12-1.44L509.52,655c16-5,30.14-11.68,45.12-18,13-5.49,42.32-15.2,48.24-25.92v-1.2l-1.44-1.2L600,608.4c-13.78,12.92-33.68,19.27-53,26.64C534.21,639.89,522.26,646.34,508.56,650.64ZM204.72,801.36a26.73,26.73,0,0,0,1.2,6.72h1.44c2-1.37,2.1-10.23,1.44-13.92-2.31-12.9-1-28-3.12-41.28l-2.4-16.56-2.16-2.16L197,719.76l-10.56-21.6-10.32-25.44L163.68,649.2c-2.51-4.93-9.85-26.63-13-28.56-.54-.43-.83-.47-1.92-.48l-.72,1,4.08,11.28c6,15.38,13.72,27.92,19.92,42.24l10.08,25c6.21,14.08,13.8,28.41,17.76,45.12L203,779v9.6l1.44,9.6c-9.76-3.49-14,6.93-12.24,17.28,1.89,11.05,3.9,20.59,11.52,25.92l1-.24a2.68,2.68,0,0,0,1-1c-.42-3.65-3.32-5.18-4.56-8.16-1.72-4.15-6.66-20.35-4.08-26.64C198.4,802.59,202.06,802.88,204.72,801.36ZM631.2,637.92a3.85,3.85,0,0,0-2.64-.48c-.76,1.3-.26,2.76-.72,4.8l-4.56,12c-5.68,13.84-11.86,27.73-19.2,40.32-7.19,12.33-15.69,22.69-23,35.28-2.69,4.61-6.85,8.53-9.12,13.68-7.34,16.68-8.87,36-12.48,56.88-1.74,10-1.2,22.35-1.2,33.84l.24,15.12c5.46,2.95,4.08-13.06,4.08-18.48,0-22.62,1.91-40.87,5.76-59.28,5-23.91,15.39-40.07,27.36-56.88l6.48-7.92c6.69-10.47,12.42-22.17,18-33.6l11-26.16C632.22,644.64,633.75,639.65,631.2,637.92Zm-330,30.72c-9.92-.43-20.62-.5-29.52-2.4-7.18-1.53-14.48-4-22.56-3.84l-.72,1-.24,1.44c3.81,2.87,11.28,2.94,16.56,4.08l19,3.12,19.2.72c4.25.66,10.71,1.09,15.12.24C321.24,667.34,305.87,668.84,301.2,668.64Zm-28.08,29.28c-12.23,13.16-.3,48.16,3.6,63.36,8,31.24,20.7,60.47,28.08,92.64,2.69,11.75,1.39,24.45,3.6,37.44,2.17,12.75,2.82,26.86,5.28,38.64,6.54,3.52,3.16-9.13,2.4-13.2-3.07-16.37-1.73-35.31-5-52.32-10.11-52-30.71-93-39.36-145.92-1.34-8.22,2.57-13.23,2.88-19.92ZM229,855.12c-5.54,2.57-4.27,10.36-14.88,9.6-2.63-3.51-2.2-8.55-3.36-13.92a3.56,3.56,0,0,0-2.88-1l-1,1.2c-.77,1.84,0,7.05.48,8.88,4.75,18.85,25.55,4.66,23.52-3.84Zm346.56,20.4c-4.61,2.93-13.87,2.16-21.12,2.16-11.46,0-32.14-.47-40.56,2.88s-12.33,12.35-19.2,17.28c-11.19,8-24.54,14.91-37.92,20.4-9.15,3.76-19.39,4.75-30,7l-24,5.28-15.84,1.92-24.24.48c-4.36.74-7.68,2.68-11.28,3.84l-.48,1.2c3.87,1.75,9-1.15,13-1.44l13.68.72c5.79.72,12.85-.78,18.24-1.68,28.42-4.75,58.32-7.81,79.2-20.4,8.89-5.36,18.12-10.4,26.16-16.56,5.09-3.9,8.11-11.35,14.64-13.68,13.92-5,34.62-.62,50.64-2.88,2.44-.34,2.11,1,3.36,1.44,1.71.67,4.59-.36,6.24-.72l.48-.48-.24-1.92a2.91,2.91,0,0,0,2.16-1.92l-.24-1.92A4.45,4.45,0,0,0,575.52,875.52Zm-16.8,36.24c-2.46-4.3.58-17,.72-21.36L558,889.2l-1.44-.24c-3.61,2.73-4.68,18.45-2.4,24.24,1.29,3.28,8.06,9.68,13.68,6.72.46-.34.15,0,.48-.48V918C566.73,915.41,560.69,915.19,558.72,911.76Zm-217,45.6-1.44-.24C333.14,964.2,320.3,973,306,967l-6.48-5.28-1.44-.24-.72.72c1.29,10.58,20.58,13.07,31.2,8.88,5.25-2.07,12.35-6.7,14.64-11.76l-.48-1.44Zm-8.4,26.4L328.08,990c-9.68,6.49-13.33-10-15.36-14.64l-1.44-.24-.72.72c-.43,18.16,15.66,27.06,25.44,11.28a5.05,5.05,0,0,0-1.44-3.36Z" transform="translate(-126.95 -447.31)" fill="#1c1c1c" fill-rule="evenodd"/></g></svg>