<svg id="wood_block" data-name="wood block" xmlns="http://www.w3.org/2000/svg" viewBox="0 0 3300 2126">
  <metadata><?xpacket begin="﻿" id="W5M0MpCehiHzreSzNTczkc9d"?>
<x:xmpmeta xmlns:x="adobe:ns:meta/" x:xmptk="Adobe XMP Core 5.6-c138 79.159824, 2016/09/14-01:09:01        ">
   <rdf:RDF xmlns:rdf="http://www.w3.org/1999/02/22-rdf-syntax-ns#">
      <rdf:Description rdf:about=""/>
   </rdf:RDF>
</x:xmpmeta>
                                                                                                    
                                                                                                    
                                                                                                    
                                                                                                    
                                                                                                    
                                                                                                    
                                                                                                    
                                                                                                    
                                                                                                    
                                                                                                    
                                                                                                    
                                                                                                    
                                                                                                    
                                                                                                    
                                                                                                    
                                                                                                    
                                                                                                    
                                                                                                    
                                                                                                    
                                                                                                    
                           
<?xpacket end="w"?></metadata>
<defs>
    <style>
      .cls-1 {
        fill: #cda064;
      }

      .cls-1, .cls-2, .cls-3, .cls-4, .cls-5 {
        fill-rule: evenodd;
      }

      .cls-2 {
        fill: #474747;
        opacity: 0.3;
      }

      .cls-3 {
        fill: #242424;
        opacity: 0.2;
      }

      .cls-4 {
        fill: #282828;
        opacity: 0.1;
      }

      .cls-5 {
        fill: #1c1c1c;
      }
    </style>
  </defs>
  <path class="cls-1" d="M17.116,881.5L9.261,1349.33s-2.514,75.14,38.446,101.9,317.933,150.8,317.933,150.8S672.532,1738.91,704.4,1746.45s74.315,18.78,114.2,6.69,545.7-197.28,545.7-197.28l678.33-240.92,552.74-215.61,492.69-165.752s153.76-52.562,175.7-76.125,27.88-40.75,27.24-72.125-4.02-325-4.02-325-6.59-132.984-39.4-185.656-165.29-118-165.29-118l-213.51-102.7S2731.97,1.438,2621.79,8.594s-298.6,53.437-436.45,101.422-751.69,256.531-751.69,256.531L761.1,581.516,232.7,753.328S25.673,770.609,17.116,881.5ZM693.191,2034.52s-51.359,10.6-38.117,49.04,91.319,33,146.224,23.72,414.842-90.61,414.842-90.61l606.09-127.06,473.13-109.7,362.8-75.8,153.92-44.91s13.12,71.03,150.4,106.53,229.56-18.61,256.92-75.17,67.61-186.65-.49-261.61-191.77-99.48-295.83-63.22-114.36,93-133.42,131.69-6.25,89.64-6.25,89.64L2228.9,1721.78l-778.43,151.11L831.889,2000.28Z"/>
  <path class="cls-2" d="M1059.99,1286.59s-67.745-53.56.15-109.07,363.11-131.36,363.11-131.36l554.18-190.926,577.26-201.75s360.86-122.265,418.53-134.875,86.46,27.61,68.07,53.5-177.47,75.157-177.47,75.157L1530.87,1121.16Z"/>
  <path class="cls-3" d="M1023.94,1263.19s21.4-32.97,88.73-59.08S2186.46,823.063,2186.46,823.063l754.87-251.422,87.78-32.485s-43.1-18.187-66.63-17.672-557.87,173.875-557.87,173.875L1766.5,929.437,1229.6,1111.92S997.413,1153.86,1023.94,1263.19ZM29.124,841.219s69.364-1.125,126.377,2.7,275.458,93.515,370.151,143.8,193.8,117.811,203.892,157.471S765.1,1584.84,765.1,1584.84l-8.651,184.55-170.1-67.52L203.394,1520.19S32.388,1456.72,22.55,1409.36s-7.043-237.25-7.043-237.25S9.9,853.641,29.124,841.219Z"/>
  <path class="cls-4" d="M2925.79,1374.33s-26.73,93.81,98.04,162.11,229.36,17.98,229.36,17.98-1.47,147.39-67.91,189.49-173.79,41.71-173.79,41.71l-89.85-17.51-56.23-44.27-47.57-53.65-63.25,13.06L1290.46,2007.44,735.478,2114.28l-85.854-25.47,370.8-70.86,669.82-146.34,780.52-167.67,360.37-78.5-22.25-35.83-28.2-12.58S2783.72,1402.67,2925.79,1374.33ZM715.928,1132.14L3258.16,301.094l20.02,158.437s32.07,339.813.32,379.141-65.52,43.312-65.52,43.312L1715.56,1418.92,968.2,1692.31l-190.432,71.66s-16.349-3.16-12.024-29.92S742.193,1167.66,715.928,1132.14Z"/>
  <path id="SHAPE_copy" data-name="SHAPE copy" class="cls-5" d="M2598,0c49.43,7.992,100.27,1.424,147,11,39.72,8.138,80.98,16.42,113,33,33.81,17.507,68.86,37.484,107,53,59.96,24.392,115.61,48.775,170,78,38.65,20.769,78.19,34.846,104,68,46.6,59.853,60,156.423,60,262q-0.495,53-1,106v52c0,74.459,9.6,160.3-26,205-10.92,13.708-36.85,20.733-54,28-46.58,19.739-97.14,36.436-145,56-193.44,79.08-405.64,134.67-607,206-181.5,64.3-346.98,139.78-525,209-56.92,22.13-119.02,34.54-177,57-113.49,43.97-231.37,82.99-346,128q-76.995,24.99-154,50c-114.89,45.84-233.05,93.15-354,131-32.859,10.28-108.859,45.46-148,39-148.929-24.59-262.894-99.7-382-157-80.551-38.75-166.2-74.98-248-111-45.252-19.93-93.373-39.84-115-83-19.615-39.15-5.063-90.52-13-142-3.9-25.32-5.05-62.12-1-88q1.5-52.995,3-106c5.971-38.14-3.687-82.55,2-118V926c0.223-40.724,2.664-78.161,21-101,30.851-38.428,134.443-59.271,188-80,59.471-23.019,126.02-37.121,189-57l106-38,199-60c167.956-53.217,342.65-106.895,511-160q77.985-29,156-58c256.09-80.829,501.01-166.024,751-251,98.73-33.56,190.73-64.014,293-92L2531,6Zm-14,23-64,8c-68.39,17.118-139.06,28.869-202,51-313.75,110.327-624.46,210.634-944,315q-63,24-126,48l-80,24q-45.99,16-92,32c-75.91,24.036-152.741,42.317-231,67-142.925,45.078-292.132,97.21-434,142-83.34,26.312-168.1,42.974-248,74L63,826v1c103.137-2.109,177.069,20.936,250,51l71,24c72.347,30.932,143.313,70.834,207,111,52.487,33.1,112.917,74.14,142,130,10.578,20.32,10.072,43.44,15,70,11.4,61.42,10.264,130.6,21,195q1.5,41.49,3,83,2,81.99,4,164c0,29.9,4.023,67.06-3,93,26.349,0.55,46.957-10.91,67-18,31.229-11.04,64.616-19.4,94-31q63.993-22.5,128-45,116.49-44.49,233-89c159.85-56.47,315.72-107.31,469-167,67.83-26.41,138.37-40.9,204-67,133.92-53.26,262.37-110.12,395-163l249-85c62.26-24.26,127.54-36.36,192-59,94.5-33.191,194.27-68.283,286-105,44.33-17.746,91.32-33.614,133-53q14.505-7,29-14,11.505-17.5,23-35V583q0.495-46.5,1-93c0.01-92.546-12.73-178.538-53-232-23.4-31.068-61.3-43.818-97-63-55.02-29.565-111.42-54.124-172-79q-36-15.5-72-31c-26.2-15.148-51.9-31.173-84-41C2736.2,25.08,2662.5,22.875,2584,23Zm484,338h2l-178,66c-55.32,21.845-116.2,39.541-174,62l-121,46q-75,20.5-150,41c-218.86,65.826-425.72,145.935-641,214-107.98,34.14-214.47,67.1-320,104q-70.5,23.5-141,47-199.98,62.493-400,125c-22.223,7.36-125.45,43.31-146,35h2c39.579-24.89,96.6-29.01,143-46q122.985-41.49,246-83,66-20.5,132-41c150.04-58.9,310.26-105.471,467-155,201.68-63.729,396.64-138.5,599-202l203-56,294-103q60.99-19.5,122-39Zm-83,144c54.84-.16,92.97,50.214,60,95-32.83,44.6-140.85,87.438-199,110q-205.485,69.993-411,140c-210.08,82.388-422.68,152.06-638,230l-272,97c-117.69,38.08-242.51,76.65-366,111-49.7,13.82-117.29,24.44-137-24-21.43-52.67,26.89-92.79,58-111,39.63-23.19,91.85-34.83,140-50q69.99-24,140-48,52.995-15.495,106-31c90.19-31.652,187.97-58.639,278-94l342-133c144.37-55.851,298.76-96.411,442-152q66-20.5,132-41l163-57,136-39Zm-2,23-22,3q-39.99,11-80,22L2542,663c-147.23,57.078-305.75,98.482-454,156q-169.485,65.993-339,132c-87.11,34.226-182.06,60.4-269,91-120.58,42.43-244.27,68.5-361,115-31.55,12.57-97.03,49.04-80,96,13.74,37.88,81.05,23.1,115,13,117.13-34.86,240.66-64.18,351-107q144.48-51.495,289-103,57-18.495,114-37,262.98-96.99,526-194c86.64-33.714,179.38-57.372,265-91l143-48a1278.256,1278.256,0,0,0,127-60c31.54-17.126,82.95-41.39,56-89C3012.43,532.056,3002.17,527.951,2983,528Zm-57,30c12.85,3.193,37.16,15.887,41,28h-12c-12.36-4.3-25.92-12.354-32-23v-3ZM61,848c-10.943,8.006-20.28,9.722-28,21q-1.5,124.488-3,249c-5.607,36.49-8.038,114.1-2,153,7.02,45.22-6.875,98.96,7,137,18.438,50.55,123.965,84.54,176,106,131.528,54.24,246.98,121.73,376,177,36.516,15.64,73.7,28.94,114,42,16.252,5.27,33.621,15.82,54,14-3.716-9.54-2-27.2-2-40V1576l-3-99c-11.37-71.61-6.932-147.28-19-215l-9-78c-18.67-70.7-77.436-106.87-130-144-62.226-43.956-136.794-84.349-210-116l-73-25C231.915,868.607,163.106,847.941,61,848Zm2942,488c127.88-2.08,213.11,56.71,250,146,36.36,88-7.29,224-60,266-81.42,64.87-220.88,63.28-312,8-20.87-12.66-41.61-30.7-56-50-5.34-7.16-8.83-22.04-18-25-131.69,38.24-276.07,53.67-413,88q-73.995,20.505-148,41-170.49,38.49-341,77c-65.88,16.11-134.14,21.06-202,36-89.31,19.66-177.67,41-264,64-94.67,25.22-196.23,35.58-290,59-120.67,30.14-245.041,52.9-370,75-49.741,8.8-128.707,10.18-138-35-10.947-53.21,55.179-63.2,89-75,44.783-15.63,95.987-20.29,145-31,78.244-17.1,162.59-32.33,242-52,81.92-20.29,169.06-29.92,255-49,105.85-23.51,218.77-44.45,327-68q63.495-10.995,127-22,198.975-41.49,398-83,142.485-32.49,285-65,60-10.995,120-22,75.495-18.495,151-37c-17.73-120.21,51.63-191.92,136-226C2942.11,1345.45,2976.51,1346.47,3003,1336Zm-1,25q-35.49,7.995-71,16c-51.78,17.94-97.14,54.93-118,104-4.53,10.65-25.71,89.71-12,102q6.495,0.495,13,1c11.85,2.82,20.53,15.75,24,27,3.02,9.8,5.59,29.21,2,41q-5.505,9-11,18c2.37,13.71,37.5,43.8,49,52,50.29,35.85,139.91,67.16,228,43,83.44-22.89,131.93-99.26,132-202,0.02-28.58-.24-50.8-9-72C3195.29,1409.44,3117.76,1360.7,3002,1361Zm-203,241-87,21c-101.52,30.27-217.11,41.34-322,68-366.1,93.06-757.3,150.31-1134,232-145.38,31.53-289.257,54.08-431,90-59.618,15.11-129.93,16.53-164,57-0.948,45.65,87.356,34.08,125,27,99.1-18.64,204.472-39.71,300-64q33-6.495,66-13c81.07-21.77,167.76-30.31,251-51q146.985-35.49,294-71c95.6-21.1,189.37-30.22,281-53q128.49-29.49,257-59l151-42c78.86-19.81,159.99-27.71,241-47,62.05-14.78,126.58-30.68,189-43,5.32-14.94,6.41-43.21-8-50C2805,1603.33,2802,1602.67,2799,1602Z"/>
</svg>
