<svg id="5c704e2c-9221-4a33-b72f-3289bac9f7d9" data-name="Bongo 2" xmlns="http://www.w3.org/2000/svg" viewBox="0 0 422.27 449.91"><title>Bongos</title><g id="8f5a78b7-c734-440b-b47d-e326170a2931" data-name="SHAPE copy 15"><path d="M931,536.43c-1.33,9-8.6,15.85-14.84,20.11,6.27-8.21,13.53-11.73,15.82-24.6,2.33-13.14-8.34-24.07-14.65-29.1-1.93-1.54-6-7.09-9.18-5.66.1,3.52,2.72,6.27,3.91,9q1.85,5.18,3.71,10.35l5.86,7.23,2.34,6.44,1.76-.39c.06-1.11.13-2.21.19-3.32,2.94,28.53-34,39.91-55.46,46.67-18.91,5.94-41.34,9-62.89,13.08l-16.61,1.17-16.21,1c-6.14,1-14.52,2.11-21.48,1l-35.74-.19-47.27-6.45c-17.94-3.8-35.62-9.17-52.34-14.45-24.39-7.68-50.79-15-56.84-41-1.86-8-.44-16.83,2-22.84h.2c-.71,2.53-2.62,7.39-1.17,10.54a2.67,2.67,0,0,0,2-.59c1-3,3.86-3.27,6.45-4.68,1.32-5.92,4.16-11.07,7-15.62,1.58-2.51,4.94-5.16,5.27-8.59l-.39-.59c-4.59.1-8.66,4.23-11.52,6.44-8.47,6.55-19.17,17.86-15.63,34.76,2.18,10.38,7.19,15.93,12.5,22.84-5.32-4.08-9.75-11-11.91-18.15q-.78-5-1.57-10l-1.75.39c-2.09,11.07,2.9,32.45,7.22,39.83,4.16,0,7.3-1,10.94-.39v.2c-22.63-.05-18.86,20.78-28.71,33.19L537,597v1.17l2.15,2.34c10.75-.05,11.44-14.7,14.84-22.26,1.88-4.18,5.24-8.61,10-10l6.45-1-2,1.56V570c4,5.86,21.31,13.3,28.32,17.38,22.1,12.84,48.16,20.33,77.35,26,12.49,2.41,25.35,1.68,38.86,3.71,12.6,1.89,26.88,1.17,40.43,1.17,4.68,0,12.82,1.29,16.61-.39v-1.56c-2.78-2.3-7-6.69-7.23-11.33,5.59-11.26,15.9,7,18,10.74,5,1.16,11.48.14,16.21-.58l19.33-.39c7.25-1.11,13.68-1.79,19.54-3.52,2.89-.86,8.73-.49,11.13-1.56.48-1.92,1.88-4,1.37-6.64l-2-3.71c-1.12-4.1,2.82-6.73,5.28-7.61.33.12.63.25.93.39h0l0,0c5.71,2.69,3.59,7.91,6.22,13.83,9.85,0,17.84-4.68,25-7.81,18.33-8,34.43-16.62,43.36-34,2-3.82,8.44-21.53,5.47-28.11ZM572.18,564.55H572c.06-.85.13-1.7.19-2.54ZM938,523.93l-4.29-3.12-2,.39c0,3.11,1.41,5.2,2,7.81,1,4.73-.45,10.33,1.56,13.67a2.77,2.77,0,0,0,2-.59C938.6,538,941.15,528.51,938,523.93ZM546,549.71c.33-2.93.65-5.86,1-8.79.77-2.44,3-3.77,3.32-6.64l-1.17-1c-11.68,0-10.49,23.72-12.5,34.17-.62,3.2-2.87,9.7-1.57,12.7a12.24,12.24,0,0,0,4.89-.59C539.94,568,543.4,558.38,546,549.71Zm301.17,50.37c.72,1.17,1.44,2.34,2.15,3.52.65,2.74-1.08,6.24-1.76,8.39-4,12.62-12.29,34.23-22.46,40.22a19.35,19.35,0,0,0,2.15,8h1.37l10.74-11.13c6-8.27,9.32-18.92,13.48-29.09,4.09-10,6.63-18.59-.17-27.89l-.07,0C849.16,592.29,845.36,595.67,847.18,600.08Zm-65.62,35.34a100.24,100.24,0,0,0,15.23,19.92c2,2,11.57,10.19,15,8.59,0-2.58-.31-5.5-1.36-7-21.31-9.62-24.71-38.91-40.63-54.09-3.21-.1-5,.56-6.25,2.35,0,5,6.77,11,9.18,14.45Zm105.66,98.8c-.69-1,.32-2.83-.9-3.42-1.06-.51-3.92.11-5-.68l-1.36.2a1.77,1.77,0,0,0-1.18,1.17c-.35,1.92-.1,3.59-.78,5.66l-6.44,3.9a2,2,0,0,0-1.17-1.56l-1.18-.19c-5.15,4-5.41,12.18-7.42,19.52-.6,2.22-2.3,5.71-1.17,8.2,6.65,0,15.66.31,19.73-2.53,4.64-3.25,10.09-18.57,6.83-26.36Zm-285.46,38c4.93-.41,10.13-1.06,11.83-1.87,0-3.49-.5-7.87-1.76-10.54-4.32,0-16.56,2.05-19.53,3.9,0,2.68-.52,7,.39,9,1.49,0,4.14-.12,7.08-.33l.34-.06Zm253.43,5.36c-9.94,13-22.83,22.19-39.26,28.7l-16.4,5.66-5.67,1.17c-.16,3-1.7,7.61-1,10.52a.36.36,0,0,1,.13.06c.14,0,.57.59,1,1.26a5.6,5.6,0,0,1,1.44,1.64v.19c-.19,0-.84-1-1.44-1.83a3.6,3.6,0,0,0-.91-.51,4,4,0,0,1-.25-.81c-.43,0,.11,2.11-.92,2.57-.67.31-.65.31-1,1-.36,1.82.86,2.24,1.18,3.52-.39,2-.79,4-1.18,6.05l-3.32,2.34c-3.64-.7-4.74-1.44-7.85-3.15-.15-6.14-4.76-9.63-7.44-13.44a19.14,19.14,0,0,0-4.8-4.32c-2.75-1.35-5.31.11-8.16.48-1.17.15-3,1-3.58.71l-14.46-.19L724.53,818c-12.39-2.3-24.7-2.71-36.14-5.67C670,807.56,652.33,802.4,639,792.6l-10.16-8.2-6.05-6.64h-1.56c-.17-.12-1.73-5.54-3.91-6.44-2.68-1.11-7.29.15-9.57.59l-6,.3-2,.15c-6.51,1.32-13.83,2.34-20.16.33-.26-1.44-.53-2.87-.79-4.3-2.76,0-6.8,3.23-5.27,6.64.46.58.91,1.17,1.37,1.76-2.19.8-.53,19,.78,21.08,2,3.16,9.75,3.62,15,2.74,7.91-1.33,29.77-2.69,35.55,1.36q4,3.91,8,7.81c5.06,4,9.94,8.58,15,12.31,6.36,4.64,15.18,6.43,23,9.56l8.4,3.91,8.59,1,22.85,4.5,20.71,1.75c8.29,1.33,15.86-2.62,23.24-.39,11.94,3.61,15.11,28.75,33.79,22.07,13.28-4.76,2.95-14.82,9-22.85a2.72,2.72,0,0,0-.58-2h-1.57c.25-3.23-.67-5.27.59-8.4l1.17,3.91c6-.09,12.59-4.34,17.19-6.64,14.68-7.34,29.09-15.92,35.55-31.44,1.21-2.91,6.75-16.72,5.46-19.52Zm6.06-3.13-2,.39c-1.9,6.64,0,14.17,5.86,15.43,7.81,1.68,9.28-5.35,10.55-10.54.39-1.59,1.36-3.41.59-5.08C871,774.92,865.39,778.1,861.25,774.44ZM584.88,813.1c-3,.47-5-2-7.42-1-.21,7.22.09,16,5.47,17.57,8.86,2.62,11.71-6,11.71-13.47,0-1.88.22-4.39-.39-5.66Zm190.43,62.09-1.95.4c-1.42,6.72-.79,14.33,4.88,15.81,8.8,2.29,11.49-3.23,12.69-9.76.26-1.41.82-3,.2-4.3C785.5,877.72,778.76,879.34,775.31,875.19Z" transform="translate(-519.5 -445.32)" fill="#4d4b4a" fill-rule="evenodd"/></g><g id="1ba1adc3-a60b-468a-9ac6-e3e8d9077129" data-name="SHAPE copy 14"><path d="M578.63,732.66q1.27,10.44,2.54,20.89c.89,5.36-1.62,16,0,19.53,2.47.57,7.56.84,9.76-.2a309.93,309.93,0,0,0-4.1-51.94c-1.15-6.72-.75-13.49-2.54-19.33-3.47-11.37-10.51-21.33-16.21-30.85-7.13-11.91-13-24.87-20.12-36.7-4.61-7.72-10-15-13.08-24-1.31-3.76-2.13-9.59.19-12.89,1.45-2,3.82-1.62,6.25-2.73.91-3.25,5.11-9.19,3.52-12.69l-3.71-.39c-17.25,0-22.69,19.4-16.41,35.34,5,12.59,12.53,23.65,19.34,34.56s11.4,23,18,34.17c4.92,8.34,10.12,16.55,13.86,26.16C578.27,717.67,577.37,724.91,578.63,732.66ZM554.8,585.44c-2.94.1-7.68,10.74-6.64,13.08C555.65,601.09,558.59,590.82,554.8,585.44Zm369,1.56h-1.37l-7,6.83-5.67,4.1L907.73,604q-2.44,5.26-4.88,10.54c-4.3,9.76-9.4,19.43-12.89,30.46-5.52,17.42-8.46,36.28-13.48,54.48-2.71,9.83-5,19.15-7.62,29.28-.73,2.82-3.17,8.59-2,11.33,3.09,0,7.46-.75,9.77-2,1-4.26.65-9.7,1.56-14.84,3.09-17.58,3-38.16,8.79-52.72,7.7-19.35,16.92-37.64,25.19-56.43q4.11-8.79,8.21-17.57c1.2-2.75,3.55-5.42,3.71-9ZM815.54,644.21c-6.42-.14-8.37,2.31-11.52,5.27v1.95l7.62,5.28.78,5.07c2.65,12.47.33,27.06-3.13,36.9-8.49,24.17-16.74,48.45-23.24,74.2-1.91,7.56-.86,16.64-2.34,24.8q-1.56,13.76-3.13,27.53c-.54,3.08-1.31,8.36,0,10.35,1.76.75,5.71,3.6,8.21,1.56,4.12-2.17,2-11.48,2.93-17q2-15.23,4.1-30.46.48-6.82,1-13.66c5.71-32.07,18.09-58.59,27-88.06,2.81-9.35,4.26-26.43.19-35.54C822.26,648.63,818.48,646.77,815.54,644.21ZM886.44,760l-1.37.2c-1.86,1-2.24,4.55-4.1,5.86-6,4.2-10.75,1.69-18.75,3.12-1.82,1.36-1.89,3.45-1.17,5.86,5.14,1.92,12.25,2.54,17-.59.2-1,.39-2.08.59-3.12,4-.73,11.17-6.17,8.2-11.13ZM600.89,802.36l-.39-1.75c-7.45.09-19.41,2.81-24.61-1.17-1.86-1.43-1.47-6-2.53-8.2a5.21,5.21,0,0,0-3.32,1.17c-3.17,10.05.53,9.43,7.22,13.27v4.49c6,4.32,6.6,3.66,13.67,1.76,1.35-.36,2.06-.1,2.93-.58l.2-.39c0-4.16-3.19-3.64-6.06-4.49v-.2C593.26,806.39,598.34,805.06,600.89,802.36Zm-14.06,4.3-1.17,1-1.37-1.17v-.2h2.35l.58.2Zm211.33,51.16c-.49,4.62-2.22,5.11-6,6.44-10.87,3.76-18.48-.42-23.44-7.81a3.21,3.21,0,0,0-2.74,1c-.85,7.83,2.6,9.87,6.84,13.08-1.26,2.24.45,2.36,1.56,3.71.59,1.17,2.68,1.09,3.27,2.26,2.78,1.89,18.26,1.31,13.2-1.2.4-.47,1.45.79,1.11.11l-.39-.78c-3.56-.91-7.83-1.43-10.74.58l-2.15-1-1-2c11.55,2.7,30.16-3.43,22.46-15A2.72,2.72,0,0,0,798.16,857.82Z" transform="translate(-519.5 -445.32)" fill="#bec7cc" fill-rule="evenodd"/></g><g id="6ed6bc92-c713-4ac8-9e8d-6babf41b1a29" data-name="SHAPE copy 16"><path d="M615.93,566.3a534.79,534.79,0,0,0,58.4,15.62l24,2.93c15.53,2.67,32.47,2.73,50,2.74,44.94,0,87.1-4.21,121.28-15.82,18.07-6.14,50-15.44,54.11-34.17,1.59-7.2-2.25-13.8-4.69-18.16l-1.95.39c-.07.33-.13.65-.2,1-10.37-51.33-70.1-59.61-122.46-69.51l-34.57-2.93-13.28-.59c-35.3-.33-68.11,2.82-96.49,10-12.93,3.25-28.29,4.42-40,9.37-19.44,8.2-30.55,23.58-38.47,43.54q-2.54,6.75-5.08,13.48h-.2c.15-4,3.54-9,2.15-12.11l-1.56.2c-7.88,3.85-3.86,19.11-.78,24.79C575.25,553.82,596.48,559.72,615.93,566.3Zm-29.1-70.87c-3.57,13.8,2.57,19.45,11.14,25.18,14.55,9.74,33.3,14.5,52.14,20.11,14.85,4.43,31.09,7.35,47.27,10.35L723,553c16.81,2.75,39.1,3.56,56.64.78l14.45-.2,33.6-3,3.45-.54C854.2,545.42,883,537.23,894.64,522c2.27-3,3.08-6.55,5.08-10-2.7,15.12-18.33,23.44-31.25,28.51l-13.86,3.9c-7,2.63-15.07,4.29-23.5,5.64l-2.09.42-1.36.12c-6.79,1-13.75,1.91-20.52,3L780.19,555a178.14,178.14,0,0,1-50.58-.2l-7.82-.19-29.49-3.52C673.46,547.45,653.87,543.9,637,538c-17.09-6-35.34-10.73-46.68-22.45C586.75,511.82,582.27,501.86,586.83,495.43Zm-31.44,59c-1.59-5.36-1.31-12.22-3.91-16.79h-1.37c-4.8,6.36-4.3,24,.2,30.85h2c1.71-2.28,4.09-3.91,5.86-6.05C558.15,558.61,556.2,557.12,555.39,554.39Zm379.49-3.9c-3.45.23-3.1,6.08-4.1,8.78-2.39,6.47-6.89,12.59-11.14,17.38-11.38,12.86-29.23,20.41-46.67,27.14l-10,2.93c-1.53.33-3.67,0-4.88.59-.37,3.65-4,10.72-3.12,12.88,8.73-.08,16.26-4.78,22.85-7.61,20.15-8.65,38-17.67,49.41-35C929.68,574,938.05,557.53,934.88,550.49ZM740.15,619.8l-13.08-.19c-15.91-2.45-31.69-1.57-46.49-4.49-29.57-5.84-55.55-12.32-78.51-24-10.23-5.21-20.16-10.26-29.11-16.6-2.41-1.71-5.11-2.86-6.83-5.27-4.54,0-6.87,3.22-8.79,5.86.3,6.61,6,9.12,10.16,11.91,5.53,3.68,10.79,8.18,17.18,10.93l13.68,4.88c20.69,8.15,41.59,16,65.82,21.29l45.7,5.86,13.67.78,14.84.39a81.72,81.72,0,0,0,23.44.19c4.7-.74,11.24.84,15.24-1-.13-3.66-3.48-8.34-5.28-10.94C761.77,619.51,750.31,621.35,740.15,619.8Zm92.19-5.27c-6.73,1.41-14.25.81-21.48,2-7.83,1.24-22.4-1.23-28.32,1.56.12,3.9,3.56,9,5.46,11.72q24.22.3,43.17-4.1c3.56-.83,8-.78,10.94-2.34.84-3.14,4.59-8.85,3.12-12.11Z" transform="translate(-519.5 -445.32)" fill="#ece9d4" fill-rule="evenodd"/></g><g id="3fd6657b-8221-4558-9510-182662612645" data-name="SHAPE copy 17"><path d="M811.44,680.53c.64-3.72,1.59-11.39,0-14.84-15.35-4.61-24.78-20.28-32.22-33a50,50,0,0,0-14.85.19l-30.66.39c-6.43-1-12.71-.26-19.73-1.36l-44.14-5.27a310.47,310.47,0,0,1-58.2-17.19l-15-5.85c-3.22-1.25-7.26-1.55-9.77-3.52l-2,.39q2.45,14,4.88,27.92c5.32,28.48,9.33,56.12,14.85,83.77,3,14.94,4.87,29.81,8.39,43.73.8,3.16,1,12.81,2.35,15,5.88,1.86,10.61,11.35,15.43,15.23,9.7,7.81,20.44,13.58,33.2,18.55,13.95,5.42,30.07,7.9,46.09,11.13l26.57,2.93,25.78.39,6.44-.39c1.15,2.69,6.18,9.8,8.4,11.52a3,3,0,0,0,1.56-.39c1.71-10.63,1.53-22.2,3.32-33,1.19-7.17.37-14.12,1.76-20.7q9.29-31.73,18.56-63.46C806.17,702.39,809.28,693.15,811.44,680.53ZM896,607.11c-3.74,0-6.42,2.49-9.18,3.71l-16.6,7.42-10.35,3.12-6.64,1.18c-4.18,13.87-14.55,32.78-26,39.44.48,23.84-6.87,41.07-13.47,58.18-5.6,14.51-9.15,29.82-13.68,45.11-3,9.94-2.52,23-4.49,33.78-.58,3.15-2.39,9.43-1.17,12.3,8,.06,18.31-5,24.61-7.62,14.55-6.18,27.83-13.79,35.55-26.75,5.58-9.37,6.51-22.57,9.57-34.56q8.58-35.92,17.18-71.85,5.67-23.24,11.33-46.47C893.57,620.89,897.32,610,896,607.11Zm-93.75,42.37,2-.39c2-5.84,10.41-6.68,15.42-3.12l4.69,5.07h1.37c4.67-6.37,14.34-15,14.84-24.79l-.39-.59-33.79,5.47c-4.26.71-13.27-.86-16.4.58C790.07,635.25,799.79,647.16,802.26,649.48Z" transform="translate(-519.5 -445.32)" fill="#8a5033" fill-rule="evenodd"/></g><g id="e9bb3b60-d28d-4b63-ae59-151083f5ac0c" data-name="SHAPE copy 18"><path d="M932.16,519.12c-3.64-10.6-10.68-16.49-19-22.32l-8.4-5.28c-7.84-7.59-15.73-14.61-25.92-19.92-49.84-26-147.69-33.34-215.76-19.2-18.15,3.77-36.44,5.47-52.32,12-6.25,2.57-11.49,7.09-16.56,10.8-5.74,4.2-13,6.31-19.2,10.08-14.81,9-25.51,22.19-25.92,45.6a14.22,14.22,0,0,1-3.84-.48c-11,4.37-6.68,19.2-10.32,31.44a74.89,74.89,0,0,0-3.12,18c-3.58,3.7-7.6,5.87-9.84,11-8.32,19.2,6.19,39.17,13.68,51.36,8.07,13.13,14.49,27.4,22.08,41,5,8.91,12,18.64,15.12,28.8,1.74,5.6,1,12.06,2.16,18.48a180.27,180.27,0,0,1,2.88,35.52c-6.42,2.43-6.83,3.15-6,10.08v13.2c-2.6.54-3.53,2.2-4.56,4.32-4.17,8.54,3.77,9.42,7.2,13,1.83,2.15-.07,9,.48,12.24,1,6,2.44,11,7.44,13,11.9,4.75,16.8-12.84,13.68-24,3.33-.73,6.26-2.67,6.72-6.24,15.9-4.31,21.5,4.08,29,10.08l16.32,12.48c17.44,11,40.87,15.55,65,19.92l8.4.24c4.61.83,10.88,2.51,16.8,1.44,11.9-2.14,23.92-.63,26.64,9.12-1.4.72-1.86,2-1.92,4.08-.23,7.49,3.92,10.48,8.16,13.44C767,883.14,771,898.88,785,894.48c8.16-2.55,9.06-11.46,10.08-21.12,5.83-1.5,14.28-13.81,5.28-17.52-1.78-3.91-.3-12.61-.24-17.76,21.38-6.53,54.73-26.28,57.6-50.4,12,11.7,22.09,1,21.6-15.6,4-1.49,11.06-4.52,9.6-11-.35-1.55-1.84-1.89-1.44-4.32L890.88,744c1.76-8.37-2.13-16.56-10.32-15.36l6-48.72c2.65-9.57,7.12-18.21,10.8-26.88,11.94-28.16,25.89-54.26,37.2-82.56l3.6-13.2-.48-11C940.06,537.91,948,520.23,932.16,519.12ZM604.32,471.84c9.16-5.62,20.92-6.57,33.12-9.6,17.95-4.46,36.92-7,56.88-10.56l35-2.4c45.55,0,85.4,4.66,120.48,15.36,19.76,6,40.12,13.53,51.6,27.84,7.16,8.93,11.65,21.34,16.08,32.88l1.44,1.2.48-.24-.24-2.64c6.3,8.05,2,18.36-3.36,23.76-12.79,12.79-33.13,18.64-52.56,24.72-32.83,10.28-72.49,13.92-114.72,13.92-18.07,0-35.55-.16-51.6-2.88l-22.08-2.64c-18.47-4-36.4-8.9-53.52-14.16-23.35-7.18-66.61-19.6-55-51.84l.72-.48c-1.18,4.16-3.28,9.33-2.16,14.88l.48.48c2.76-2.3,9.16-22.78,11.28-27.6C582.55,488.59,592.5,479.09,604.32,471.84ZM580.08,487c.06.15-10.08,16.5-10.8,21.6A21.43,21.43,0,0,0,563,512.4c.35-4.93,1.92-8.27,3.6-11.76v-.72c-1.84.37-2.6,1.25-3.84,2.16C567.56,495.17,573.48,492,580.08,487Zm-17.76,15.6h.24l-.72.72Zm-9.12,22.32c2,4.85,1.72,9.65,4.08,13.68,7.9,13.5,21.34,21.06,36.24,27.6,6.72,3,15.92,8.37,25,7.44l.24-.48L600,566.64c-15-5.9-28.83-13.81-37.2-26.4-3.76-5.65-8.49-15-6.48-25.2.92-4.69,3.27-7.39,4.8-11l.72-.48c-4.75,8.94-3.61,24.11.72,32.64,9.38,18.48,29.44,25.47,50.64,32.16,17.77,5.61,36.49,11.15,55.44,15.6l46.08,6.48c12.21,2,25-1.85,37.68.24,10.35,1.7,22.25.09,32.16-1.44l22.56-1.44c20.21-3.61,41.87-6.38,59.76-12,21.09-6.62,44.21-13,55.2-29.76,3.82-5.83,8.5-16.51,3.36-24.48h-1v4.8h-.24c-1-4.8-5-7-7.2-10.56l-2.64-7.92L910.08,499c9.88,5.5,25.73,22.14,19,38.64-2.52,6.14-7.1,11.27-11.52,15.6-12.37,12.11-32.51,19.13-51.12,24.72l-17,3.36c-12.55,3.48-27.41,8.2-42.24,8.16l-.24.48c1.47,1.4,7.88.93,10.56.48,9.26-1.56,18.18-2.57,26.4-4.8l23.76-4.8c16.75-4.87,33.73-12,46.56-21.12,6.47-4.58,15.56-10.67,17.28-19.68,2.56,6.42-4.58,21.83-6.72,25.44-9.3,15.72-23.84,23.58-41.28,31.2-6.73,2.94-14.33,7.72-23.52,7.68,0-5.75-4.36-17.7-11.28-13.2-6.06,3.94-2.55,7.68-1.68,12.24l-1.2,5.28c-6.58-1.71-13.47,2.45-19,3.6-9.27,2-20-.23-30.24,1.44-3.8.62-10.81,2.24-14.4.72-4.52-3.17-6.33-16.18-16.08-13.68-1.86.48-3.07.86-3.84,2.4-3.93,4.51,4.09,10.39,5.52,13.2l.48.48c-47.13-.28-91.25-1.3-127-12.48-16.8-5.26-34-12.05-48.24-20.4L571.2,571l-1.2-1.44c3.23-1.26,4.36-5.45,3.12-9.12-3.42-2.07-8-1-12.48-.72C556.63,549.8,552.93,538.34,553.2,524.88ZM553,572.16c4.12-6.95,6.84-6.48,14.4-9.84h3.12a6.6,6.6,0,0,1-.24,3.12c-1.68,1-3.52.67-6,1.2-4.42,1-7.76,4.35-9.84,7.68-4.72,7.56-4.83,21-13.44,24.72-1.54-.13-1.8-.42-2.4-1.44C548,593.06,547.79,580.89,553,572.16ZM545,579.84l-2.64-1.2,2.16-18.24c1.46,1.78,2.93,8.11,4.08,10.32Zm264.48,78.24.72,4.56c-22.64-10.34-30.84-37.42-45.12-56.16v-1l1.92-1.2h2.16c5.8,4.35,8.81,11.74,12.24,18.48C788.12,635.9,796,652,809.52,658.08ZM784.32,619c15-.52,50.79-.27,59.52-6.24l-2.88,9.6c-16,3.59-31.62,6.25-51.84,6ZM775.2,629v.24l-30.48,1.2c-6.44-1.05-13.89.22-21.12-1-17.91-2.92-35.36-2.24-52.8-5.76a340.87,340.87,0,0,1-68.16-20.88c-15.85-6.8-36.32-12.47-43.92-27.12a24.29,24.29,0,0,1,5.76-5h.72c28.15,21.37,61.64,34.61,102.48,43.68,16.26,3.61,33.69,3.39,51.36,6.24l10.56.24c12.62,2.07,28.08.1,41.52,0ZM551,597.6H549.6l-.24-.24L553.68,587C557.48,589.74,553.74,596.52,551,597.6Zm-4.32,2.88,5.28,1.2c7.15-1.21,10.34-14.43,3.12-18l.72-2.64h.24c4.42,5.39,18.51,16.78,25.92,18.48,5.69,16.75,5.25,36.45,8.88,55l19.44,103v.72l-16.8,2.64a225.26,225.26,0,0,0-3.6-39.12l-1.68-15.6c-1.59-6.19-4.21-12.2-6-18-.7-2.26-2.72-3-3.84-4.56l-3.12-7.44c-5.29-8.9-10.41-18.12-15.84-27.36l-16.32-28.56c-3.09-4.92-7.86-10.82-7-18.72C539.41,603.52,544.52,603.86,546.72,600.48ZM610.8,762.24l-9.36,1,8.88-1.92C610.81,761.75,610.58,761.36,610.8,762.24Zm-17,2.16,7.44-1.2c-2.17,1-4.56.91-6,2.64l.24.72,16.08-2.4.48,5.28-18.24,1.68ZM608.4,727l-12.72-72.48c-2.29-11.13-3.31-23.28-5.76-35.28l-3.36-17.28c12.13,3.77,23.37,8.74,34.8,13.2s24.09,7.63,36.72,10.8c10.69,2.68,22,2.55,33.84,4.56,14.13,2.41,29.82,1.93,44.88,4.32l41.28-1c6.3,11,18.55,30,32.16,32.88,4.06,16.34-7.73,40.8-11.52,53l-15.84,53.76c-1.76,7.55-.88,15.56-2.16,24L777.84,828l-.48.24-7.2-10.32c-3.78-2.19-25.35.72-32.64-.48-16.74-2.76-33.68-3.37-49-7.2C670,805.59,652,800,638.4,790.32l-12-10.56c-3.11-3.88-5.63-8-10.32-10.32-.13-9.24-2.28-15.87-4.08-23.28ZM767,820.32c4.69,2.89,8,15,13.68,18.48,8.75,5.32,13-4,13-11.76h.24a22,22,0,0,1-.72,13.68c-16.32,5.68-21.46-6.35-27.84-14.4l-6-5.28h-.48Zm23.28-1c-1,5.89,1.09,13.75-2.64,16.8-2.52.37-4-.95-6-1.68-1.49-3.81,2.6-32,3.6-37.68l1.92-22.32c6.68-27.27,15.76-52.63,24.48-78.24,4.34-12.76,7.17-40.09-5.76-45.12l-.48-.72c1.9-3,4.12-3.35,7.68-4.8,12.78.35,13.48,25.09,10.32,37.68-7.94,31.63-22.07,58.53-28.08,92.16l-1,14.16Zm34.56-169.92c-8-7-12.06-11.58-21.84-1.92V648c-2.42-1.79-9.95-12.39-11.52-15.36,9.34,2.46,28.88-1.95,36.48-3.6l10.56-1.92c.72.86-1.24,4.91-1.92,6.24C833.85,638.8,829.56,645.8,824.88,649.44Zm6.48-.24c5.62-7.58,10.14-16.94,13.92-26.16,2.24-5.47,4.6-11.53,5.52-17.76.6-4-3-4.88-2.16-8.64.65-1.57,1.67-2.14,2.88-3.12,5.29,2.89,4.69,13.76,2.64,19.68-5.85,16.92-13.1,35.45-26.16,45.36L826.56,653C827.51,651.6,830.23,650.72,831.36,649.2ZM550.56,539.28l3.6,16.32c.73,2,2.22,3.69,2.64,6.24-2.58,1-3.55,3.66-5.52,5.28H551C549,558.85,546.5,547.19,550.56,539.28Zm-3.84-4.56h1.92l-3.12,5.76-1,8.88c-2.63,8.49-5.83,18-6,29.28h-2.4C537.64,568.51,539.92,538.38,546.72,534.72Zm31.2,178.08c-3.19-10.4-9.31-19.2-14.4-27.84L548.4,655.44c-6.28-10.62-14-20.9-19.2-32.4-7.26-16-10-40.76,14.64-40.08v.24l-3.6,10.08c-18.16,4.77-1,29.61,3.6,37,7.36,11.73,13.22,24.8,20.4,37,6.28,10.65,13.87,21.34,18.24,33.6,2.35,6.59,1.66,14.52,3.12,22.32a262.72,262.72,0,0,1,3.84,48.72h-7.2a209.33,209.33,0,0,0-2.16-38.16C578.92,726.17,579.84,719.05,577.92,712.8ZM593.28,816c0,6.23-1.88,13.9-9.12,12.48-5-1-5.56-8.85-5.28-15.12a18.55,18.55,0,0,0,13.92-1.2C593.48,812.89,593.29,814.57,593.28,816Zm-14.64-8.4c3.69,1.62,9.79,1.22,14.4.72l-.24,1.44C588.58,810.68,579.72,813.92,578.64,807.6Zm20.4-5.28c-7,2.44-25.65,5.57-28.56-3.12a6.8,6.8,0,0,1,1.44-6.24c1.74,1.37.86,5.61,2.4,7.2,4.54,4.7,17.16,2,24.72,1.92ZM756.72,841c-7.6-2.15-15.06,1.82-23,.48l-20.16-1.68-23.28-4.56-8.64-1-8.16-3.84c-8.4-3.48-17.61-5.17-24.24-10.32-5-3.86-9.86-8.23-14.88-12.24-3.37-2.69-5.53-6.87-9.84-8.64-2.07-.85-5,0-7.68-.48-11.46-2-32.74,3.28-39.84-1.68A78.84,78.84,0,0,1,575,778.32c1.63.87,4.76,2.87,7.44,1.68H583c-.68-2.07-4.48-3.16-6.48-3.84-2.23-2.79-1.4-3.74,1-6,.71.7.71,2.48,1,3.6,11.44,4.32,24.63-1.21,37.92-1.2l2.16,2.64.72,1c-11-.67-19.43,2-28.56,2.88l-.24.48.24.48c6,1.31,12.92-.76,19-1.68l12.24.72c5.72,5.26,10.82,11,17.28,15.6,16.58,11.74,39.18,17,62.64,21.84,11.06,2.28,22.77,2,34.56,3.84l18.72.48c11.56,5.33,18.83,36,40.8,21.12,2.06,5.17-.3,15-1.44,18.72l-5.76,2.64C771.52,868.31,768.88,844.4,756.72,841Zm31.92,45.6c-2.25,3.92-11,5.12-13.68.72-1.69-2.76-.64-7-.48-10.56,3.35,2.18,10.21,4.25,15.6,2.16Zm2.16-11c-2.81,3-12.36,1.28-14.4-1,3.87,1.5,9.69,1.23,14.4.72Zm8.88-16.32.72,1.44c-.12,17.24-38.12,12.41-32.88-2.64l6.24,6c6.19,4.35,24.37,5.4,25.44-4.56Zm17-32.88c-5.06,2.58-11.05,6.17-17.28,7.2-.92-4.08-2.11-8.46-5.28-10.32l1-9.12c6.26-.29,11.23-3,16.32-4.8,15.33-5.39,36.87-15.67,43.44-29.28l.48-.24C848.88,805.51,837.9,815.5,816.72,826.32ZM853.2,776.4c-7.4,12.13-19.9,19.56-33.6,25.44-6.79,2.91-15.56,7.57-24,7.92A330.46,330.46,0,0,1,813.36,726c6.67-19,15.86-37.06,15.36-62.88,2.36-2.29,5.61-3.4,7.68-6,6.58-8.25,15.12-22.28,18-33.6,16.47-.76,27.81-9.84,40.56-14.88L872.88,698.4l-11.52,49.68C859,758.41,858,768.59,853.2,776.4ZM869,788.64c-7.24,2.65-10.17-6.54-8.64-12.48,4.86,1.21,9.38,1.86,14.64,0C874.67,780.92,872.88,787.23,869,788.64ZM861.6,773H876C873.14,775.64,864,776.24,861.6,773Zm6.24-3.12v-.24l6.48-.72c5.88-1,8.61-2.84,11.28-7C886.47,767.14,874.44,770.17,867.84,769.92Zm17.76-19.68c-3.16,14-7.8,15.59-24,15.36l4.32-17.76,7.44-1.44c4.47-1.25,10.2-3.54,13.2-6.48C887.7,742.59,886.12,747.94,885.6,750.24Zm1-14.88c-.79,7-12.23,9.08-19.68,9.36v-.24c3.58-5.29,12.79-1.67,16.32-8.4v-1.2l-.48-.48a5,5,0,0,0-3.12,1.44l.48-4.8C882.42,732.45,884.5,733.83,886.56,735.36Zm-11,1.68-7.44,1.44,12.72-51.6Zm37-126.48c-7.46,14.92-14.09,30.21-20.88,45.84-2.63,6.06-6.7,12.65-7.92,19.68h-.24c3.92-24.27,13.81-44.77,22.32-64.08,1.78-4,2.69-9,5-13,1.56-2.63,8.74-6.41,11.28-9.84Zm-16.8,13.68c.79-6,3.25-11,3.36-17.76l6.72-4.32-9.84,21.6v.48ZM924,579.6c-14.71,19.9-41,31.34-67.68,39.12,1.08-3.32,2.61-6.33,3.12-10.32,9.51-.12,17.13-4.45,24.24-7.44,19.19-8.08,47.12-23.71,49.92-47C935.91,561.37,927,575.58,924,579.6Zm12.24-38.88-.48-.24c-.62-3,.13-7.21-.48-10.8l-1.92-7c4.85,1.87,6.52,12.51,2.88,17.52Zm-305.76-3.36c18.52,6.73,40.11,11.07,61.2,15.12l30.48,3.6,10.56.24c15.28,2.64,37.42,2.11,53-.24l23.28-1.2c15.6-2.59,32.67-3.91,45.6-8.88l15.12-4.32c12.47-5.09,25.18-12.45,30.24-25,2.81-7,3.36-22.06-3.12-25.2l-.48.24,2.64,9.6c3.41,19.61-18.66,32.13-31,37l-12,3.12a166.21,166.21,0,0,1-27.84,7.68L797.52,552l-13.92.24c-18.22,2.88-41.1,2.41-58.56-.48l-26.16-1.92c-20.55-3.71-40.7-7.92-59-13.68-16.46-5.17-31.69-9.85-43.92-19-4.72-3.52-10.85-8.77-8.64-18.24,1.1-4.7,3.38-8.89,5.28-13-.5-.4-.47-.38-1.44-.48-6.89,5.69-10,20.4-3.84,29C596.17,527,614.88,531.69,630.48,537.36Z" transform="translate(-519.5 -445.32)" fill="#1c1c1c" fill-rule="evenodd"/></g><g id="c5214db3-81ae-4a1e-b900-e63d64358ee2" data-name="SHAPE copy 2" opacity="0.3"><path d="M923.28,541.68c-.51-.91-.86-1.07-2.16-1.2-2.42,1.09-3.2,2.71-5,4.08l-20.16,10.32a427.1,427.1,0,0,1-61.2,20.88c-14.55,3.75-30.94,4.09-47.52,5.52l-25.92.24h-28.8l-29.28-1c-19.73-3.43-39.05-5.09-57.36-10.56-19.81-5.92-45.72-12.72-61.92-22.56-4.11-2.49-8.9-6.35-11.52-10.32-1.53-2.32-2.8-7.16-5.76-7.92l-1.2,1.68c.56,8.35,7.93,14.75,13.44,18.48,14.84,10,33.55,14.24,52.32,20.64,21.92,7.47,47.15,11,72.72,15.36l24.24.72c9.64,1.54,26.82,1.51,36.48,0h13l30-1.44,27.12-4.08,14.16-4.32c2-.21,2.11,2,4.56,1.2,3.32-1,7.91-3.69,11.52-5,8.25-3.09,17.82-3.06,25.44-6.72l1.68-1.92,4.8-1.68c.91-.61.51-1.58,1.2-2.4.21-.25,15.72-6.37,17-6.72a3,3,0,0,0,.48-2.88c2.86-1.48,6.61-4,8.16-6.72ZM551.76,567.36H553l.72-1.2c.42-1.21-3.85-13.35-4.8-15.36l-1.44-.24C544.62,555.16,548.63,565.27,551.76,567.36Zm56.88,26.4c10.6,4.63,22.06,7.84,33.6,12.24l15.84,5.52c33,7.89,75.08,7.41,114.72,6.24l-1-4.08c-1.38-1.2-15.5.45-18.48.48l-52.08-.72c-14.75-2.5-29.07-3.12-43-6.72-17.86-4.63-36.26-11.94-52.56-19l-23.52-12.48c-3.53-2.17-6.82-6.87-11.28-7.68a4.22,4.22,0,0,0-1.44,1.44c.35,3.93,5.14,6,7.68,7.92C586.38,584,597.4,588.85,608.64,593.76ZM592.56,600a505.1,505.1,0,0,0,68.64,22.08c10.14,2.55,19.93,2.76,31,4.8l24.24,2.64,43.68,2.16c4.09,0,15,.83,17.52-.72,1-.53,1.14-1,1.2-2.4l-1.44-1.44-29.76-.24-24.24-1.44c-16.31-2.67-32.48-1.93-47.76-5.28-33.13-7.26-61.73-15.47-90-27.36-6.74-2.83-13.07-7.45-18.48-11.76l-7.68-7-1.44-.24-.72.72C559.32,586.07,581.8,595.62,592.56,600Zm-12,158.88,1.44,13.2c.4.81.38.81,1.2,1.2l1.68.24,1.2-1.44c1.39-3.53-.62-10.82-1.2-14.4-1.92-11.87-.56-24.44-2.64-35.52-5.37-28.58-21-47.4-33.84-68.4l-6.24-12c-8.49-14.34-15.91-28.53-15.36-51.36-.64-.65-.6-.88-1.68-1.2-3.17,3.07-1.48,7.56-2.4,13.2-1.54,9.43,6.25,24.14,9.36,31.2,5.77,13.09,14.6,24.44,21.84,36A271.93,271.93,0,0,1,574.56,709C580.19,722.55,577.68,742.26,580.56,758.88ZM915.12,591.6l-1.44-.24c-2.56,2.55-6.38,16.57-8.16,20.88L897.36,630l-5.28,15.12c-3.1,7.18-8.53,16.19-7.68,25.92l1.2.24,7-20.16c5.49-12.89,12.1-26,17.28-38.88C911,609.46,918.25,593.28,915.12,591.6ZM589,600l-1.2-.24c-2.4,2-1,7.85-.24,11.52l4.32,30c2.57,11.69,3.38,23.85,6,36.24l11,55.92c2.91,13.86,3.63,27.44,7,40.56l1.68,1a2.79,2.79,0,0,0,2.64-1.44l-6.48-38.16c-6.13-29.62-9.81-59.76-16.32-89.52C594.78,634.05,594.45,608,589,600Zm218.16,48.48c-1.25.9-1.71,1.09-1.68,3.36,3.43,3.26,7,5.95,9.12,10.56,5.3,11.74-2.74,26.18-5.28,36.24-7.28,28.85-17.8,52-24,81.6-3,14.12-1.56,29.85-3.84,44.64-.53,3.45.25,6.93-.24,9.84a6.49,6.49,0,0,0,1.2,1.2l1.44-.48c2.58-1.8,1-8.31,1.68-12l3.84-41.28c2.13-10.66,4.25-22.77,8.16-32.4l7.44-19.2,13.92-48.72C822.24,668.76,822.09,648.78,807.12,648.48Zm79.44,106.8a40.51,40.51,0,0,1-11.76,7c-4.11,1.35-11.16-2.73-13,.24l-.24,1.44c6.78,7,25,.63,27.84-5.52l.24-1.68-1.44-1.2ZM782.64,863.76c2.93.62,6.7,1,9.84,0,2.11-.66,3.82-2.36,5.52-2.88,1.33-.41,2.47.06,3.36-.48s.81-.67,1.2-1.44l-.48-1.92c-5.82-3.18-12.62,5.24-21.6,1.68-9.94-3.94-11.7-17.47-21.6-20.64-8.43-2.7-22.35-.25-32.16-1.92-17.7-3-35.15-4.34-50.64-9.12-12.55-3.87-23.82-11.59-33.6-18.72-5.71-4.16-11.38-10.43-19-12.48-7.27-2-23.86-1.19-31.68.24-2.26.41-7.77,1.26-10.32.24-7.57-3-1.33-20.49-6-23l-1.2-.24-1,.72c-.81,3-.83,8.7-.72,11.52,1.15,30.12,30.3,8.07,50.64,15.36,11.51,4.12,19.42,15.5,28.8,22.32,8.13,5.91,23.47,10.69,33.84,13.92l11.76,1.44,2.4-1.2,20.4,3.12,17.28,1.44c6.13,1,14.72-1.36,19.92,1,2.65,1.18,4.57,4.21,6.24,6.48C768.9,855.91,772.78,861.66,782.64,863.76ZM870,786.24c-5-.41-7-5.53-7.92-10.08l-1.92-.72-1.2,1.2c-3,13.58,18.38,19.61,18.24,8.16l-1.44-1.2C872.86,783.79,872.52,785.37,870,786.24ZM593.76,810.72l-1.92-.24-.48.24c-1.6,2.74-1.3,6.54-2.16,10.08L587,824.88l-2.16.48c-3.14-3.7-3.85-8.86-5.28-14.4l-1.44-.48-.48.24c-3.92,6.68,2.49,23.61,11.28,19,3.83-1.9,7.34-13,5.76-18.48Zm207.6,51.36c-2.24,2.31-4.17,5.23-7.44,6.48-9.19,3.5-24.3-1-24.24-9.6l-.48-.48h-1.44l-1,1.2c-2,10,15,16.13,25.92,13.68,5.84-1.31,8.08-4.69,10.8-9.12l-.24-1.68A3.61,3.61,0,0,0,801.36,862.08ZM791,880.8a61.32,61.32,0,0,1-7.44,6.72c-7.7-.52-4.73-5.12-6.24-11.76-.4-.81-.38-.81-1.2-1.2l-1.44-.24-.48.24c-1,1.81-1.2,4.53-1.2,7.44,0,14.58,19.68,11.36,21.12.72L793,881Z" transform="translate(-519.5 -445.32)" fill="#1c1c1c" fill-rule="evenodd"/></g></svg>