<?xml version="1.0"?><svg viewBox="0 0 640 480" xmlns="http://www.w3.org/2000/svg">
 <title>green kazoo</title>
 <metadata id="metadata8">image/svg+xml</metadata>
 <g>
  <title>Layer 1</title>
  <g id="svg_1">
   <path fill="#007f00" stroke="#000000" stroke-width="1px" id="path2848" d="m65.438904,87.358421l-0.938904,24.880768c112.256195,93.334572 376.722961,214.61628 477.89856,238.949287l4.694458,-19.716858l-481.654114,-244.113197z"/>
   <path fill="#00ff00" stroke="#000000" stroke-width="1px" id="path2846" d="m65.438904,87.888969c140.279526,114.409859 391.698975,215.334724 482.123596,244.113228l40.372559,-67.131165c-162.666229,-76.511108 -343.273666,-143.128937 -510.290497,-186.371033c-5.94635,1.877792 -10.0149,5.007446 -12.205658,9.388969z"/>
   <path fill="#ffd42a" stroke="#000000" stroke-width="1px" id="path2844" d="m295.51709,188.469208c43.910065,11.650909 82.221954,6.914856 116.846497,-5.311218l0,21.078857c-1.697632,27.252548 -83.225739,50.029816 -116.514526,3.983398l-0.33197,-19.751038z"/>
   <path fill="#d4aa00" stroke="#000000" stroke-width="1px" id="path2842" d="m293.359436,177.846802l120.829865,-0.331955c-3.093933,47.801392 -118.510468,50.559128 -120.829865,0.331955z"/>
   <path fill="#ffd42a" stroke="#000000" stroke-width="1px" id="path2838" d="m293.193451,177.182892c31.733154,44.043167 102.088654,32.318024 119.170135,2.655609l-119.170135,-2.655609z"/>
   <path fill="#ffdd55" stroke="#000000" stroke-width="1px" id="path2824" d="m270.800262,134.801544c19.519318,-51.6492 136.265564,-50.959908 166.052887,-3.254425c1.223267,4.609695 2.198608,8.515228 1.583405,13.124939c-10.072144,61.416382 -147.710938,68.270813 -168.925293,2.800842c-0.513367,-3.910828 -0.060608,-8.99527 1.289001,-12.671356z"/>
   <path fill="#ffd42a" stroke="#000000" stroke-width="1px" id="path2820" d="m294.257721,115.141113c61.730621,-37.985222 137.940674,-3.279015 133.85144,29.255341c-1.425232,8.279755 -6.387451,15.693832 -7.884186,16.815826c-15.672211,25.155884 -160.240417,27.858063 -137.944672,-31.417938c3.665863,-7.581924 6.610504,-9.790588 11.977417,-14.653229z"/>
   <path fill="#806600" stroke="#000000" stroke-width="1px" id="path2826" d="m290.692566,146.597626c-0.709534,36.724854 122.535248,43.713318 126.387634,1.57547c-7.90802,-44.76683 -115.985962,-50.428154 -126.387634,-1.57547z"/>
   <path fill="#d4aa00" stroke="#000000" stroke-width="1px" id="path2830" d="m296.934753,159.615112c9.658447,-53.181435 115.435852,-31.486786 113.843567,0.127289c-9.927826,18.574448 -89.898438,28.111328 -113.843567,-0.127289z"/>
   <path fill="#554400" stroke="#000000" stroke-width="1px" id="path2832" d="m303.471375,164.926361c21.41037,17.755005 76.035278,18.711639 99.254547,1.400406c-16.868774,-28.029938 -88.513397,-23.484604 -99.254547,-1.400406z"/>
   <path fill="#d4aa00" stroke="#000000" stroke-width="1px" id="path2834" d="m309.073059,168.25235c12.152679,-23.33902 78.677734,-18.281601 88.401306,0.700195c-7.984375,10.15979 -67.454559,16.538788 -88.401306,-0.700195z"/>
   <path fill="#2b0000" stroke="#000000" stroke-width="1px" id="path2836" d="m323.427307,174.84079c14.574554,-13.968719 48.90686,-11.569931 64.419189,-1.207214c-18.979828,6.428986 -39.409637,9.620667 -64.419189,1.207214z"/>
   <path fill="#007f00" stroke="#000000" stroke-width="1px" id="path2850" d="m583.240601,284.057343l5.163879,-19.247406l-40.84198,66.192261l-5.16394,19.716827l40.842041,-66.661682z"/>
  </g>
 </g>
</svg>