<svg id="Snare_Drum--Topics_Instrument_KS1" data-name="Snare Drum--Topics Instrument KS1" xmlns="http://www.w3.org/2000/svg" viewBox="0 0 2272 1948">
<defs>
    <style>
      .cls-1 {
        /*fill: #4d211d;*/
		fill: #61443B;
      }

      .cls-1, .cls-2, .cls-3, .cls-4, .cls-5, .cls-6, .cls-7 {
        fill-rule: evenodd;
      }

      .cls-2 {
        fill: #c8bcbd;
      }

      .cls-3 {
        fill: #d4d4d4;
      }

      .cls-4 {
        fill: #fdf8f8;
      }

      .cls-5, .cls-6 {
        fill: #0f1318;
      }

      .cls-5 {
        opacity: 0.3;
      }

      .cls-7 {
        fill: #deae6a;
      }
    </style>
  </defs>
  <g id="Snare_Drum--Topics_Instrument_KS1_Colour" data-name="Snare Drum--Topics Instrument KS1 Colour">
    <path id="SHAPE_copy_3" data-name="SHAPE copy 3" class="cls-1" d="M1122,8c274.84-2.519,512.04,34.522,706,114,91.87,37.645,181.91,79.3,248,143l10-2c7.06-18.645,33.03-16.027,42-1,11.74,19.666-4.78,39.1,3,60l27,36c20.39,32.426,34.69,69.572,43,114,3.78,20.235,3.92,47.722,0,68-2.45,12.676-11.45,32.795-6,45l19-3c5.48,6.043,14.12,13.812,13,26q-1.005,9-2,18c4.29,10.809,12.12,27.118,6,45q-6.495,11.5-13,23-5.505,65.993-11,132-1.995,24-4,48c4.08,11.911,16.16,21.524,12,40-4.01,17.813-15.93,26.206-21,38q-20.505,219.48-41,439c23.57,15.52,37.34,50.54,15,80Q2155,1482,2142,1493c-6.69,18.18,3.06,58.78-25,50-13.99-1.76-15.81-10.08-24-17-5.59.3-5.84,1.02-9,3-13.04,36.1-47.51,63.13-70,91-67.29,83.4-201.42,156.81-309,201q-63,22.005-126,44c1.09,17.01-6.4,35.17-23,29-12.87-1.81-13.32-10.56-21-17l-82,18c-51.01,11.99-105.03,13.9-159,23q-34.5,1.995-69,4c-28.82,4.57-96.44,8.07-128,3l-71-3-141-15Q831.506,1897,778,1887q-41-10.995-82-22c-14.174-3.1-19.011,6.89-31,8q-6.5-3.495-13-7-4-8.505-8-17l-38-12q-43-17.505-86-35c-79.663-35.03-150.868-82.06-215-133-41.241-32.76-77.487-75.54-108-119-8.688-12.37-27.133-57.4-38-63-5.507-1.97-12.042-2.49-17,0q1.5,22.995,3,46c-1,.33-2,0.67-3,1-12.265,11.85-34.642-3.64-41-11-0.5-36.95-7.06-76.23-12-109-2.887-19.15,2.09-38.59-1-58q-10-114.495-20-229-4.5-55.5-9-111c-2.257-14.19.313-30.289-5-41C26.953,964.111,11.618,922.8,27,888l19-24c3.251-9.743-8.744-131.994-12-139-3.435-1.175-8.994-3.053-11-6-6.756-16.134,6.7-25.133,10-33q-1-8.5-2-17c-1.37-13.319,11.136-23.142,19-28-0.355-22.349-10.666-54.105-15-80-3.634-21.715,2.107-46.553,6-63C55.332,437.46,80.4,394.559,113,353l40-42c-2.4-21.19-15.858-36.7,9-49,4.012-1.985,8.577-5.138,13-4,9.961,1.523,13.044,5.539,17,13l8-1,38-28,88-53C432.736,126.631,564.09,90.688,698,57c89.361-22.48,184.52-25.746,283-42ZM2161,741c-14.44,21.95-30.64,41.5-46,62-0.18,5.76.39,9.73,2,13,14.9,4.781,24.91,15.97,43,17l3-2c2.54-19.086,12.77-74.877,6-90h-8ZM88,807c-4.358,8.81-1.942,31.125,2,39,9.58,0.081,22.218-.7,29-4v-6L95,807H88Zm2025,54c-4.09,8.426-4.77,37.127-1,45,18.39,0.185,30.23,12.568,43,7,2.12-10.223,5.2-28.093,1-37C2137.17,874.938,2131.67,862.041,2113,861ZM136,875L92,885c-0.3,14.336-.059,34.557,5,45,17.207-.392,40.662-16.474,55-24,0.43-13.3-2-23.229-7-31h-9Zm1972,79-3,4q-4.005,61.993-8,124c-2.31,14.9-7.93,43.73-2,57,12.13,4.32,18.89,14.64,28,22,3-.67,6-1.33,9-2l12-135c2.54-15.07,9.47-44.618,3-59C2131.45,963.342,2123.51,954.9,2108,954ZM147,957l-47,25q6,72,12,144c3.318,21.45-1.462,49.06,7,66,7.643-.21,7.895-1.91,12-5,4.742-21.3,28.315-30.91,40-46q-5-61.5-10-123c-3.122-20.046,1.594-45.127-6-61h-8Z"/>
    <path class="cls-1" d="M644,1081l40,638,144,38,207,22,254-8,162-18,90-22v-38l-4-374,2-244-150,30-212,24-231-2-218-24Z"/>
    <path class="cls-1" d="M148,861l42,556,66,78,98,76,148,86,108,44,36,6-48-630-192-60-94-44-86-52-44-32Z"/>
    <path id="SHAPE_copy_5" data-name="SHAPE copy 5" class="cls-2" d="M2095,1510h-5c-0.03,35.01-44.43,74.2-62,96-73.73,91.48-185.77,157.56-302,206-34.63,14.43-69.68,28.01-108,40-12.66,3.96-30,14.07-44,5v-22h-1q-16.005,1.005-32,2c0.39,13.81,1.39,31.03-4,39-58.22,12.68-119.24,23.59-182,35q-60.99,4.995-122,10c-37.69,5.9-106.38,8.33-146,2q-33.99-1.005-68-2c-57.961-9.3-116.947-9.95-170-21-44.122-9.19-129.581-17.22-160-38v-29c-13.369.25-24.865-.69-35-3,0.387,9.24-.675,13.25-4,18h-1c-40.209.58-90.512-29.37-122-43-110.167-47.68-216.521-112.14-287-200-20.434-25.47-71.872-74.41-72-115q-12-1.995-24-4v10c5.018,16.8,1.405,33.59-6,43h-1c-35.039,1.3-39.5-16.88-41-49-0.539-11.57-3.718-26.87,4-33-6.137-8.58-19.09-48.7-5-60-15.246-21.71-8.338-62.07-14-94q-9.5-108.99-19-218c-2.666-35.33-4.334-77.67-7-113-7-5.333-15-3.667-17.572-14.331C25.495,935.845,14.18,899.236,30,878c6.436-.244,12.228.157,16,2-4-49.662-6-105.338-10-155-6.827-1.156-8.714-8.726-13-12,13.358-29.435,3.757-69.445,29-73-9.609-21.132-10.527-43.237-15-71C18.348,453.23,102.507,365.108,152,311c-5.23-.893.5-6.747-2-10-1.145-34.4-3-46.155,32-45,4.8,6.014,11.077,7.937,12,18,36.866-25.667,73.061-52.516,113-76C423.81,129.315,565.6,88.434,715,53c63.024-14.948,129.287-19.263,196-31l63-5c43.21-7.019,90.32.369,137-7h107l109,4c82.41,13.456,162.95,13.791,239,31,148.38,33.578,285.93,72.334,400,140,40.9,24.263,75.84,53.933,114.4,81.628C2090.84,242.22,2129.29,238.6,2134,277c1.49,12.111.42,26.434-5,34h-5q18,24,36,48c35.22,56.12,57.64,149.57,29,231,8.83-6.7,8.81-1.387,26-1,3.19,4.149,7.66,0,9,6,0,10,3,18,3,28,2.67,1.666,1.33,7.333,4,9,0.33,6.332,4.67,8.667,5,15-13.96,38.837-13.04,36.575-25,52,5.83,12.529,7.88,36.531,6,51-5.42,41.7-3.52,96.237-17,132,38.39-.276,3.76,68.014-9,75,8.93,13.283-1.31,94.93-5,117q-16.005,160.98-32,322c30.44-.29,31.24,43.61,21,68-5.77,13.75-21.88,22.34-34,30,9.67,19.81-3.49,40.49-11,50-18.11,1.37-22.82-5.03-33-13C2097.33,1522.67,2094.67,1518.33,2095,1510ZM1127,64l-84,3C975.769,77.849,907.9,73.624,844,86L684,115C488.408,164.685,302.7,225.327,180,348c-71.53,71.512-128.049,181.169-58,296,64.269,105.357,181.259,161.712,302,211,118.575,48.4,247.6,67.135,392,93l140,12,45,1c32.61,5.154,81.64,6.407,115,1h40l141-9c62.24-10.5,124.77-11.782,184-25,152.5-34.033,275.28-67.931,400-126,111.81-52.06,219.17-125,264-244,47.26-125.459-58.9-233.423-127-282C1803.95,123.307,1492.81,64.064,1127,64ZM2156,877c-20.63.262-36.85-11.765-49-21-0.39-14.219-1.6-32.711,4-41h1c23.13-.141,27.66,13.848,49,15,0.24-21.545,15.97-105.486,8-117-2.24,14.731-12.96,26.372-20,37-19.56,29.518-41.85,61.112-69,83q-22.995,19.5-46,39c23.58,0.225,34.02,26.156,53,34,16.11,6.655,27.1-6.443,46-1q10.005,5,20,10Q2154.5,896,2156,877ZM86,785l5,56c15.471,0.157,24.04.081,39,0l-7-7Zm63,75c0.326,8.693-.864,11.538-4,16L94,887q1.5,21.5,3,43c12.343-7.061,28.939-19.8,42-23,14.445-3.538,21.632,5.447,31,7,10.071,1.67,23.375-6.38,32-10h-2Zm1434,418c9.09-.21,6.37,8.51,11,12,7.31,25.77,9.96,39-12,48q-0.495,187.485-1,375c57.02-8.5,118.73-42.71,167-64,139.45-61.51,270.23-157.7,336-293-7.34-.01-8.12-1.25-12-4-0.46-36.16,2.91-97.02,13-126,0,0-3.68-17.97-3-22,3.22-19.21-.44-49.52,9-63h15l23,23q9.495-98.985,19-198c-19.95-.215-29.55-11.862-44-15-11.84-2.572-24.97,5.891-40,3-16.12-3.1-61.91-30.131-67-42q-0.495-6.5-1-13l-3,3q-39.99,24-80,48c-64.57,37.789-138.49,61.75-214,88-19.98,6.95-95.53,34.81-116,30v210Zm-968,47c-13.885.71-24.831-.88-29-10-4.038-16.05,16.117-47.37,25-54q-6-92.985-12-186c-36.793-.24-88.119-21.43-119-33-94.682-35.49-176.813-69.826-254-120h-1c0.4,10.178-1.168,12.877-5,18l-22,15c-12.943,5.759-29.148.151-43,2l-53,26q9,107.49,18,215h1v-2c14.391-16.47,21.319-34.77,39-48,9.237-.39,13.246.67,18,4,0.91,22.77,6.083,46.16-4,62,5.766,0.61,5.628,1.62,9,4l7,125c0.233,16.84,7.077,38.61-1,51-2,.33-4,0.67-6,1,0.666,0.67,1.333,1.33,2,2,15.527,37.45,64.463,86.49,95,111,43.6,34.98,86.208,70.44,136,100,68.36,40.58,143.855,66.84,223,98Q627,1515.515,615,1325Zm970-341c2.18,1.854.18,0.762,5,1C1588.33,984.667,1586.67,984.333,1585,984Zm-995,5,3,1Zm941,9-9,3c0.33,1.33.67,2.67,1,4,7.1,0.4,8.47,2.42,13,5q-0.495-6-1-12h-4Zm53,2v3c2.67-.33,5.33-0.67,8-1C1589.33,1001.33,1586.67,1000.67,1584,1000Zm-941,3v4h7l3-3C649.667,1003.67,646.333,1003.33,643,1003Zm44,721c29.179-.42,53.273,10.74,78,17q49.5,9.495,99,19,76.992,8.505,154,17l73,3,117-3,58-3c54.71-9.11,109.42-10.08,161-22,34.2-7.9,69.8-21.83,107-22q0.495-127.98,1-256c0-48.81-3.09-108.92,2-151-21.79-10.34-51.91-65.35-66-87-3.81-5.85-20.53-19.38-14-33,2.05-4.28,52.83-17.16,64-17q7.5,8.505,15,17V1088q-61.995,11.505-124,23l-161,18q-63.495,2.505-127,5c-39.07,6.11-121.64,3.98-159-2l-101-6c-74.2-12.51-147.6-17.96-216-33q4,57.495,8,115v-2q9.5-10.005,19-20c20.854-.51,48.744,9.41,62,19,0,5-17,21-17,26-26.331,27.66-35.669,44.34-62,72,13.745,23.87,5.012,88.16,10,121Q677.5,1573.985,687,1724Zm1432-470v0Zm-4,41q-4.005,13.005-8,26h6v-2Q2114.005,1307,2115,1295ZM129,1312v3c0.667,0.33,1.333.67,2,1,3-.33,6-0.67,9-1Zm5,101c-0.334.33-.667,0.67-1,1,0.666,0.67,1.333,1.33,2,2h1v-3h-2Zm591,360v3c1.666-.33,3.333-0.67,5-1C728.015,1773.4,728.611,1773.7,725,1773Z"/>
    <path id="SHAPE_copy_4" data-name="SHAPE copy 4" class="cls-3" d="M2099,252c28.63-1.164,39.56,29.462,27,54h-9q-16.5-17-33-34c0.33-2.667.67-5.334,1-8C2088.03,257.463,2093.22,255.723,2099,252ZM168,261h11l10,11v8l-30,26-10-2,3-33ZM2204,585c9.48-.293,11.2,1.4,16,5,2.56,10.2,4.3,29.069,0,38-10.65,2.563-18.69,13.117-27,19-3.33-.667-6.67-1.334-10-2C2182.6,614.187,2188.47,599.229,2204,585ZM51,645c9.237-.387,13.246.675,18,4,2.65,10.053,6.474,30.464,2,40-13.979.686-26.551,0.3-37-5C29.335,662.214,39.488,653.6,51,645Zm2153,57c5.3-.084,8.02.525,11,2q-7.5,83.491-15,167c-5.93,17.966-13.57,37.223-26,49-6.44.244-12.23-.158-16-2q7.005-73.493,14-147c3.07-19.311-.8-43.98,7-59C2188.92,711.6,2198.73,707.372,2204,702ZM41,731c11.25-.254,26.734.072,35,4L88,879c2.362,14.806,8.145,43.32,2,57-12.985.438-25.357,2.1-32-6-8.9-10.848-4.449-37.349-7-54C47.678,854.313,34.84,744.552,41,731ZM1552,942c29.67-1.116,31.35,18.126,27,46-1.42,9.1,1.12,19.58-2,26-9.25,2.22-26.35,5.56-36,1C1540.45,986.385,1535.49,957.449,1552,942Zm-940,3,10,1c15.545,7.06,19.573,41.635,15,64-1.667,1.33-3.334,2.67-5,4-8.777,4.32-25.38,1.89-32-2-0.833-20.166-4.526-41.033,0-59Zm1567,17c5.3-.084,8.02.525,11,2q-16.005,167.49-32,335c-5.34,33.2-.43,106.98-16,129-9.9,4.18-21.11,16.85-34,11q16.005-167.49,32-335c5.36-32.48,2.17-115.069,15-137C2164.23,967.252,2173.7,965.916,2179,962ZM62,981c9.982-.134,27.146.287,35,4q12.5,153.99,25,308c3.095,18.93,13.274,104.14,7,118h-7c-44.625-29.11-26.672-51.75-36-111q-9.5-108.99-19-218C63.849,1061.87,55.617,995.376,62,981Zm544,75c9.712-.02,27.548-0.5,35,3q4,71.49,8,143c2.718,17.62,9.134,54.08,2,70-13.205,2.83-26.561-.22-35-5q-4-70.5-8-141C605.281,1108.39,598.824,1072.01,606,1056Zm960,7c5.53-.14,8.88.46,12,2v156c0,18.53,4.43,51.06-3,64-12.23.34-25.98-.68-34-5V1127c0-18-4.32-48,2-62Q1554.505,1063.995,1566,1063ZM647,1307c3,0.67,6,1.33,9,2q10.5,171.48,21,343c3.215,20.62,12.4,121.78,6,136-11.268,2.1-24.578,4.76-34-1q-10.5-169.98-21-340c-3.45-22.11-13.073-113.94-5-128Zm895,21c11.28,0.08,25.89,4.5,35,9q-0.495,165.48-1,331c-4.74,31.64,8.7,100.26-2,124-9.66,2.93-23.25,10.47-35,5q0.495-163.98,1-328C1540,1440.31,1533.49,1346.92,1542,1328ZM102,1462c13.051,0.6,26.19,12.89,36,19,0.811,19.22,6.532,40.18-3,53h-1c-28.5.83-28.5-14.91-32-40C100.739,1484.96,98.034,1470.16,102,1462Zm2027,35c3,0.67,6,1.33,9,2q-0.495,13.995-1,28-4.995,6-10,12c-13.61,1.06-19.9-.85-28-7-0.35-9.96.43-19.18,4-25Q2116.005,1502.005,2129,1497ZM654,1828c11.619-.27,27.326,1.35,35,6q0.5,10.005,1,20c-6.131,6.01-15.253,19.43-30,13q-4.5-3.495-9-7C650.9,1850.7,650.722,1834.94,654,1828Zm913,6c3,0.67,6,1.33,9,2,0.24,17.11.22,36.16-3,49-6.01,4.19-13.96,6.17-24,4-8.69-7.93-16.28-35.75-8-53Q1554.005,1835,1567,1834Z"/>
    <path id="SHAPE_copy_6" data-name="SHAPE copy 6" class="cls-4" d="M1113,65c364.26-3,683.38,52.008,896,203,72.6,51.559,187.26,158.672,135,296-46.11,121.181-164.7,196.752-281,248-107.82,47.511-224.38,80.932-354,111-65.34,15.157-134.65,17.345-204,29l-139,9h-36c-36.65,5.716-103.37,4.692-139-1l-44-1L808,947,672,926c-100.711-23.576-194.995-47.5-281-83C279.881,797.136,175.246,736.682,117,638c-65.082-110.262-5.507-222.515,59-287C330.931,196.119,563.506,140.478,823,89c62.094-12.318,127.811-9.545,193-20Z"/>
    <path id="SHAPE_copy_7" data-name="SHAPE copy 7" class="cls-5" d="M1176,58c324.92-3.536,632.4,69.455,821,203,79.37,56.2,130.73,93.928,158,204,4.66,18.83,9.81,47.979,5,72-4.3,21.47-20.43,36.212-27,56h-1q5.505-22.5,11-45,1.5-18.5,3-37c6.36-40.7-21.48-102.837-37-125-61.2-87.383-156.93-144.693-260-190-100.81-44.315-202.21-67.224-324-94-47.35-10.41-94.44-10.51-145-19l-103-9h-51c-23.73-3.747-58.38-2.829-82,1h-86L860,90c-137.64,25.145-268,49.546-386,96l-78,37C292.934,268.512,176.453,341.336,133,445c-19.236,45.891-29.647,122.216-10,178,15.177,43.091,47.223,86.592,80,113l46,41C194.147,754.439,109.326,656.156,90,597c-7.979-24.424-15.833-57.909-9-90,7.117-33.423,23.131-66.9,39-94l21-36c20.189,2.342,51.2-46.825,66-59l79-64c8.524-5.343,14.5-3.459,25-6l18-12,67-31C534.945,143.573,692.038,102.9,866,74l192-14Zm918,200,5,1c1.33,0.666,2.67,1.333,4,2,0.36,9.627.34,19.493-3,25-0.67.333-1.33,0.667-2,1-2.33-1-4.67-2-7-3-1.07-6.407-4.15-14.381-2-20C2090.67,262,2092.33,260,2094,258ZM155,265h6l3,3c2.186,14.768,5.88,38.627-12,35l-1-3c-3.341-7.18-.978-22.585,1-32ZM2131,593c0.33,0.667.67,1.333,1,2C2131.67,594.333,2131.33,593.667,2131,593ZM51,637c5.262,0.714,5.761,1.809,9,4v6c-8.188,12.432-10.286,21.613-14,41l-6,2-2-3C24.713,669.013,40.814,645.039,51,637Zm2111,1c8.16,0.006,8.58,1.5,11,7-24.48,47.914-72.62,84.247-114,116-60.13,46.137-125.57,98.027-198,130-34.31,15.146-69.73,26.333-107,39-34.83,11.838-72.12,19.435-110,31-16.86,5.148-40.86,16.817-62,13-0.33-1-.67-2-1-3v-4c5.21-8.789,53.63-17.558,67-21,57.66-14.842,115.63-29.9,168-52C1942.67,840.555,2085.64,741.705,2162,638ZM51,729c1.553,51.327,5.11,102.435,13,150,2.345,14.137,7.752,48.956,1,58-1.241,1.774-1.572,1.648-3,3-13.481-8.944-9.877-42.873-13-62-7.894-48.35-4.708-102.22-14-153l-11-5c-0.464-8.757-.849-15.8,1-23l6-4c8.985,4.235,6.2,10.2,5,21,20.462,2.436,44.077-7.514,58-1v1l-5,6c17.168,1.586,29.919,28.884,39,40,24.845,30.412,61.452,59.516,95,81-12.726-18.841-39.987-24.821-51-45q1-3.5,2-7c-27.327-18.94-94.605-79.625-100-116l3-2h4c86.264,113.437,205.353,183.429,349,240,50.678,19.958,105.674,48.193,167,55-0.137-9.028,1.775-14.665,5-20,5.94-1.492,7.032-1.685,12,1-0.112,12.5,2.739,63.48-1,69q-6.5-2.5-13-5c-0.333-2.67-.667-5.33-1-8l-61-12L404,949c-81.657-32.2-156.375-71.366-221-120-28.728-21.62-56.419-45.38-78-74-6.21-8.236-19.907-19.676-17-33C76.961,725.424,65.908,728.821,51,729Zm2132-23c2.33,0.666,4.67,1.333,7,2,3.16,16.17-1.36,36.841-4,52q-4.5,51.995-9,104c-0.23,20.106,2.04,57.291-11,65-3.58,1.376-5.15.414-8-1q1.995-29.5,4-59h-1c-31.87,9.23-45.76-13.449-54-35l-3,2c-9.67,22.492-60.5,56.782-81,72,1.33,1.666,2.67,3.333,4,5q16.995,11.5,34,23l47-3q24.99,9,50,18c15.34,3.432,25.16-9.614,38-4-0.33,2.666-.67,5.333-1,8-4.46,8.458-20.16,12.09-33,12,7.62,22.59-3.82,88.41-8,114q-3.495,47.49-7,95c-8.55,53.96-9.64,108.2-19,159-3.56,19.34-5.36,114.69-19,111-1.33-.67-2.67-1.33-4-2-3.31-15.62-.42-33.17,2-48,8.37-51.2,14.12-100.32,18-150-1.67.67-3.33,1.33-5,2,0.33,2.67.67,5.33,1,8-3.71.74-3.89,0.47-7-1-5.83-19.31-12.35-31.09-29-41,0.3-5.59,1.02-5.84,3-9,19.56-2.09,27.42,18.56,38,29,9.54-71.15,9.26-147.52,21-216,3.34-19.494,1.7-38.42,9-53q-25.005-8.5-50-17l-44,4c-19.37-3.968-40.68-22.057-51-36-54.81,23.846-100.56,62.818-156,86q-77.985,28.5-156,57c-16.3,5.66-109.48,36.54-118,33-0.33-.67-0.67-1.33-1-2,0.33-1.67.67-3.33,1-5,33.11-26.86,93.64-30.48,136-47q66.495-25,133-50c50.16-24.331,95.87-57.426,143-83,36.56-19.841,84.78-49.14,106-87q-37.5,31-75,62c-87.93,62.256-186.44,113.4-300,149-21.53,6.75-125.91,43.25-145,37-1.33-.67-2.67-1.33-4-2,0.33-2.33.67-4.67,1-7,15.37-7.03,34.74-8.38,53-14q63.495-19.005,127-38c72.8-22.617,141.12-61.568,202-99,42.73-26.274,110.73-69.706,141-107q15-17.5,30-35c11.4-15.984,19.94-38.74,36-50h1l6,4v6c-18.7,30.28-42.14,55.036-62,83,5.26,0.714,5.76,1.809,9,4-0.33,3-.67,6-1,9,11.34,1.775,23.47,12.361,31,19,5.1-2.2,8.47-1.537,14,0C2167.2,801.986,2167.48,732.914,2183,706ZM159,952c-34.364.437-49.52,34.717-87,33v1c9.466,29.02,3.425,63.53,9,99,11.049,70.31,5.858,145.89,17,214,3.24,19.8,12.214,89.21,6,100-2,.33-4,0.67-6,1l-5-6c-13.24-33.5-6.661-85.7-13-125L59,981c-19.423-9.882-57.1-44.308-40-78,4.526,0.859,2.975-.116,5,3,6.042,13.567,5.866,29.143,14,40,36.52,48.741,68.916,6.624,106-8,10.827-4.27,19.129,2.79,32,0l20-10-16-14c-5.985,2.645-16.187,2.212-21,0-2.991-11.728-7.852-24.474-9-39,2.678-2.726,2.523-3.615,7-5l-6-7-2,1c-5.63,19.58-46.272,23.356-60,14l-4-19,2-4c18.546-8.288,26.876-9.369,50-6l-7-7c-7.8-15.8-55.71-49.885-47-70h1c12.389,2.067,21.233,19.567,28,28l63,65c88.087,67.761,190.309,114.811,303,159,23.193,9.09,105.424,44.13,129,41v-1q-0.5-5.505-1-11c-12.037-2.37-16.492-9.24-23-17,0.215-4.51.708-5.39,2-8h1q11.5,5.505,23,11c19.036,4.31,29.447-9.65,41-13,8.266-2.4,9.877,2.88,12,7-6.563,13.45-26.508,16.55-41,22q2,76.995,4,154c0.292,20.3,9.628,44.22,1,60h-1c-2-.67-4-1.33-6-2-13.569-48.65-4.362-112.98-12-172-14.18,7.67-90.906-17.33-109-23-85.726-26.87-154.579-58.43-224-99-21.069-12.314-44.595-19.3-62-35-13.888,2.988-21.322,12.213-37,15q12.5,176.475,25,353c3.255,20.7,12.374,119.45,8,128-1.667.33-3.334,0.67-5,1-1.667-1.33-3.334-2.67-5-4a1784.432,1784.432,0,0,1-18-202c-0.667.33-1.334,0.67-2,1-6.281,22.15-14.841,42.21-19,68-2.611,16.19,7.416,46.09-2,56-1.333-.33-2.667-0.67-4-1-17.192-35.67-4.494-91.49,8-122,4.688-11.45,16.034-19.43,17-33-21.985,19.23-29.808,63.75-36,98-1.838,10.17.626,19.29-3,26h-4l-3-3c-8.143-40.42,6.838-88.61,23-116q10.5-15.495,21-31Q167.5,1062.005,159,952ZM261,785c13.933,2.925,18.546,12.047,30,17v1C280.351,800.921,266.976,792.34,261,785Zm-13,71,4,3Zm12,7c18.195,14.166,40.565,23.113,63,33,79.123,34.867,174.4,80.728,275,91v-3l-1-2c-32.459-4.579-69.973-15.43-97-28-0.66,6.064-.707,6.442-7,7L350,903C322.441,890.894,290.2,872.908,260,863Zm347,217c-35.747-.01-94.48-26.41-124-38-72.192-28.35-143.332-53.389-207-91l-81-52-29-22v1c8.823,24.381,81.817,64.35,108,78,61.185,31.9,117.642,64.6,188,90q45,13.005,90,26c18.753,5.13,40.082,5.23,55,14v-6Zm945-135c2.33,0.667,4.67,1.333,7,2q-1.995,7-4,14c-4.56,20.044,6.88,40.47-2,55-2,.33-4,0.67-6,1-1.67-1.33-3.33-2.67-5-4q-0.495-11-1-22c-47.61,18.96-102.7,20.35-159,31-86.59,16.38-182.93,18.99-284,19q-55.995-1.005-112-2-29.5-.495-59-1c-50.83-8.05-101.039-7.59-146-18-46.262-10.71-106.074-8.05-143-29q0.5-3,1-6c1.392-1.923.1-.6,2-2,12.848-7.044,40.555,6.979,56,9q81.991,12.5,164,25c40.382,7.16,85.9.01,130,7q54.495,1.005,109,2c88.01,0.01,173.82.44,252-14l130-21c17.62-4.356,40.21-15.26,59-12C1539.92,962.147,1542.7,953.6,1552,945Zm-32.01,56.21c6.91,0.96,7.28,2.15,11.01,4.79l3,57c-1.33,1.67-2.67,3.33-4,5l-9-3c-2.03-14.52-3.97-28.18-4-46-36.68,5.59-76.88,15.22-116,23q-69,6.495-138,13c-43.99,7.1-106.87,10.14-145,8H995c-51.307-8.06-103.337-4.84-151-13-53.246-9.11-102.419-11.97-149-23-15.645-3.7-37.188-4.4-46-15,0.333-1.33.667-2.67,1-4,22.413-7.97,51.413,6.21,73,11,53.827,11.95,113.148,12.04,170,22,37.082,6.49,74.92-.27,115,6q44.49,0.495,89,1c84.3-2.87,162.87-9.87,237-15C1397.58,1028.6,1470.33,1011.35,1519.99,1001.21ZM1541,1105q-29.49,7.5-59,15l-78,12-168,15q-19.5.495-39,1c-47.85,7.44-120,7.87-169,1q-15.5.495-31,1l-143-9c-53.9-8.81-103.774-11.18-153-21-18.968-3.78-49.922-3.36-59-17,7.867-12.51,35-2.73,48,0,46.28,9.71,93.408,12.64,143,21,64.249,10.84,138.68,3.9,204,10,67.59,6.31,164.23,4.83,225-5,56.15-9.09,118.27-1.37,161-22q-104.985,12-210,24-55.995,1.005-112,2l-98-3q-25-.495-50-1-72.993-7.995-146-16l-119-18c-13.221-2.5-40.687-2.39-47-12-1.356-4.2.021-4.89,2-8,15.135-3.18,31.742,3.13,47,6l141,21,126,12q25.5,0.495,51,1,33.99,1.005,68,2h90q21.495-.495,43-1l107-12q87.99-11.505,176-23c15.24-3.35,48.93-18.03,61-13,3.81,17.72,2.09,41.05,2,61q0.495,45.99,1,92c0,20.08,3.02,48.28-5,61-6.9-.17-7.27-1.36-11-4Q1540.5,1191.51,1541,1105Zm-3-20q-25.5,6.495-51,13v4h3c12.47-4.73,37.28-14.28,51-11C1540.58,1085.78,1541.66,1087.02,1538,1085ZM725,1204c2.333,0.33,4.667.67,7,1,1.333,0.67,2.667,1.33,4,2q0.5,3,1,6c-33.057,34.81-56.363,72.22-99,98-19.476,11.77-47.67,16.42-58-6,1-1.33,2-2.67,3-4,7.982-5.76,10.882,7.02,21,6,14.631-1.47,26.908-9.94,38-16C677.915,1271.36,696.752,1231.57,725,1204Zm739,3c7.2,0.85,7.74,3.64,12,7,10.99,25.22,65.37,89.91,88,104q13.005,4.005,26,8c0.33,1,.67,2,1,3-0.33,1.67-.67,3.33-1,5q-4.5,2.505-9,5c-8.86-2.78-16.94-5.13-24-9,3.71,151.66-1.2,312.26-4,469h-2q-6.495,2.505-13,5-0.495-6.495-1-13c-1.38,4.76-2.28,4.85-6,7-14.42-1.97-26.82-6.98-36-14,0.22-4.51.71-5.39,2-8,7.52-2.24,14.94-2.6,23-4,0.26-6.53,1.51-7.33,4-11,2.33,0.33,4.67.67,7,1,7.23,5.13,3.66,14.81,7,24q3-171.99,6-344c2.34-25.74,2.54-119.23-1-124-22.57-10.85-50.53-57.46-65-79C1472.46,1230.75,1461.29,1219.69,1464,1207Zm622,19c1.67,0.33,3.33.67,5,1,15.83,7.28,38.15,47.61,24,71-4.51-.22-5.39-0.71-8-2q-1.5-16.005-3-32c-4.91-12.67-17.35-20.95-20-35C2084.67,1228,2085.33,1227,2086,1226ZM622,1318h6c13.657,21.46,5.154,61.64,10,92q7,131.49,14,263c3.253,20.21,8.645,107.27,3,117-18.16,2.35-32.709-19.06-42-30v-7l8-9c9.131,0.09,13.079,2.92,19,6q-10.5-213.975-21-428C620,1320.67,621,1319.33,622,1318Zm1555,109c1.67,0.33,3.33.67,5,1,3.29,1.64,3.19,2.03,5,5-6.29,34.77-65.29,79.91-107,71-0.33-1-.67-2-1-3-5.14-12.17.22-37.54,3-48,2.33-.33,4.67-0.67,7-1l2,2q0.495,18.495,1,37c27.42-4.28,57.28-21.06,71-40Q2170.005,1439,2177,1427ZM89,1428c16.363,1.26,22.759,18.01,34,25q18.5,6.495,37,13c12.514,3.17,26.552-1.83,29,12-1.333,1.67-2.667,3.33-4,5-26.034,2.36-49.483-9.08-69-17,0.374,21.14,5.929,46.51-3,61h-1l-8-3q-2.5-36.495-5-73c-2.763-7.88-10.529-8.94-12-20Zm78,60c18.078,4.18,25.518,26.73,35,40,21.117,29.56,48.534,53.05,71,81,52.634,65.47,159.175,136.38,242,172,26,11.18,109.078,46.89,136,45q9.5,1.995,19,4c13.18,2.19,33.587-9.2,25,9-9.884,2.68-18.35,3.54-31,3-0.729,7.62-1.194,17.75-4,23-9.828.14-10.884-10.35-10-23-45.607-4.07-92.461-27.91-130-44-111.188-47.65-189.4-112.21-268-191-26.392-26.46-49.739-53.13-71-85-5.846-8.76-21.391-20.06-16-33C165.666,1488.67,166.333,1488.33,167,1488Zm1941,15c10.25,2.46,9.1,14.96,10,26,5.54,0.53,5.44.91,8,4-0.67,1.33-1.33,2.67-2,4q-6.495.495-13,1c-2.23-1.6-3.34-1.69-5-4-3.27-4.69-3.66-23.2,0-30C2106.67,1503.67,2107.33,1503.33,2108,1503Zm-20,5c2.67,1,5.33,2,8,3v1c-1.49,27.15-67.47,93.42-87,109-37.75,30.11-76.24,63.21-113,95q-33.495,18.495-67,37a1039.534,1039.534,0,0,1-121,63c-22.34,9.79-101.51,43.83-128,39-0.67-1.33-1.33-2.67-2-4,0.33-1,.67-2,1-3q57.495-19.005,115-38c70.77-29.49,141.63-67.82,202-110,52.46-36.65,108.19-83.33,148-133C2058.99,1548.3,2071.63,1525.72,2088,1508Zm-492,235c3,0.33,6,.67,9,1,7.6,14.33-8.5,40.41-24,42-1.33-1.67-2.67-3.33-4-5C1571.68,1762.03,1588.46,1752.94,1596,1743Zm-892,23c5.316,1.2,9.591,2.76,12,7,2.424,6.13-1.18,8.42-4,12-6.97,2.16-17.65,1.95-23-3-3.4-2.21-3.55-2.62-4-8,1-1.67,2-3.33,3-5Zm-95,25c18.069,2.32,29.273,17.42,50,21,19.819,3.42,45.57-7.04,61-2,1.333,0.67,2.667,1.33,4,2-0.126,5.99-.935,6.71-3,10-43.211,9.96-97.355,3.03-114-26C607.666,1794.33,608.333,1792.67,609,1791Zm943,59q1.5,15.495,3,31c5.32,1.03,8.64,1.88,11,6,0.33,1,.67,2,1,3-2.33,1.33-4.67,2.67-7,4l-18-6-3-12q-39,8.505-78,17l-136,18q-55.5,4.005-111,8c-37.51,5.86-94.47,6-132,0q-26.49-.495-53-1l-123-12c-53.395-9.29-100.044-15.3-146-27-25.466-6.48-52.967-9.21-72-22,0.3-5.59,1.019-5.84,3-9,0.666-.33,1.333-0.67,2-1q30,7.995,60,16c40.056,11.11,82.282,18.07,125,26q62.994,5.505,126,11,41.49,1.995,83,4c35.44,5.6,87.87,5.7,123,0l64-3q51.99-7.005,104-14c57.12-10.56,111.32-11.36,160-27-0.29-10.16-.85-19.9,2-26-22.08.59-43.18-4.71-56-14,0.67-2.33,1.33-4.67,2-7,26.04,0.45,47.33,10.89,76,5q28.995-8.505,58-17c3.83,1.32,2.08,0,4,3-0.02,3.06-.22,3.86-2,7q-19.995,8.505-40,17l-34,6v1c12.04-.35,21.31-3.23,29,1,0.33,1,.67,2,1,3C1575.67,1849.37,1564.93,1850.61,1552,1850Z"/>
    <path id="SHAPE_copy" data-name="SHAPE copy" class="cls-6" d="M1101,4c298.46-2.3,548.42,34.834,756,123,55.09,23.4,108.49,51.373,156,83q33.99,25.5,68,51c9.76-23.1,44.1-19.577,53,2,7.51,18.21-4.88,39.673,1,56q8.505,10.5,17,21,15.495,27,31,54c27.17,62.037,26.45,115.83,13,189,7.43-4.173,13.49-6.273,23-4,6.1,8.141,13.3,15.328,12,31q-1.005,6-2,12,3.495,5,7,10c8.09,27.743-6.93,46.173-13,61q-4.5,47.495-9,95-3.495,41.5-7,83c3.96,11.723,16.62,20.906,13,41-3.96,21.936-17.4,30.95-22,44q-12,129.48-24,259-6,62.49-12,125c-2.15,13.29-7.8,38.84-3,50,23.95,10.22,33.26,50.4,17,78-6.9,11.71-20.27,18.96-30,28,1.6,54.58-24.94,66-56,33v2q-17.505,25.5-35,51c-24.31,32.22-55.49,64.93-87,90-75.61,60.16-159.24,110.46-255,151-41.79,17.69-86.44,27.94-130,45,1.95,39.71-35.12,38.54-50,13-36.23,11.78-75.03,15.68-115,24-199.63,41.54-474.13,28.26-656-18l-70-18c-12.976-1.42-18.345,12.96-34,7-11.09-4.22-9.544-17.9-18-23q-48-17.505-96-35c-63.283-26.88-125.437-59.34-179-97-56.97-40.05-112.831-87.16-154-143-7.324-9.93-52.508-85.63-56-87-3-.67-6-1.33-9-2v9c2.882,9.88,5.062,31.43,1,40-20.791,8.42-33.835-.11-50-11-0.5-36.69-6.8-75.61-12-108q0.5-16.005,1-32-3-37.5-6-75Q66,1146.52,52,981c-23.252-23.129-50.092-45.415-30-94l20-26q-5-65.495-10-131l-13-6c-1.907-7.779-3.075-23.705,1-32l9-9-2-11c-1.581-17.87,8.347-28.216,19-34-4.1-21.945-10.785-44.064-15-69-3.982-23.557.815-52.281,5-70,15-63.525,39.985-106.669,74-150l40-42c-19.588-5.446-3.964-65.55,31-52,8.685,3.366,10.935,4.027,14,13q1-1,2-2l53-38,90-52c94.635-54.923,219.317-88.97,337-119,90.3-23.043,186.209-28.367,286-45Zm55,14-109,3c-72.078,11.628-144.179,7.444-212,21C777.4,53.514,719.924,60.976,665,75c-163.345,41.708-312.8,97.826-433,183-46.788,33.155-92.205,73.819-126,120C68.981,428.585,26.75,515.142,52,607l9,28c2.781,2.641,6.958,1.5,9,5l7,31c3.771,9.2,12.292,13.537,17,21l8,19c90.619,132.048,307.4,226.307,490,269q-0.5-14.5-1-29c39.946-24.9,52.686-15.048,52,41q50,9.5,100,19,53.994,7,108,14,76.493,4.995,153,10h54c36.92,5.26,126.22,1.87,167-5q36.495-2.505,73-5c80.77-13.67,164.5-14.78,237-38-0.2-14.378-.44-30.474,2-42,35.94-16.105,49.28-14.244,48,30q27.99-7.5,56-15c40.37-12.45,79-23.5,116-38,154.46-60.543,300.14-133.181,386-262,66.99-100.516,60.38-222.622-7-317-54.42-76.232-141.73-137.191-232-177-42.55-18.766-87.35-38.285-133-56-46.92-18.207-96.58-27.961-148-41C1485.25,34.071,1326.94,18.073,1156,18Zm-56,37c385.92-2.831,718.34,54.27,936,221,85.32,65.359,179.97,192.774,99,331-51.56,88.018-131.58,138.484-220,190C1581.36,991.4,857.027,1034.59,447,875,312.491,822.645,156.17,754.06,100,626c-52.813-120.408,6.363-219.388,72-285C323.035,190.02,556.459,131.48,809,81c65.518-13.1,134.77-10.717,204-22Zm53,14-86,2c-68.215,10.88-137.257,4.955-202,17-58.881,10.955-117.956,16.045-174,30C493.814,167.1,307.149,226.853,184,350c-61.135,61.134-129.49,170.765-65,281,59.057,100.949,160.9,158.927,273,207,412.435,176.87,1068.89,145.972,1459-26,118.94-52.433,240.11-125.8,288-249,51.36-132.147-58.95-238.328-129-288-122.43-86.81-274.89-132.871-448-171L1412,82C1330.78,67.855,1238.41,77.816,1153,69Zm947,188c-4.79,3.784-8.57,5.755-12,11q17.505,18,35,36c1.17-16.9,1.17-29.091-4-42C2113.01,258.976,2109.71,257,2100,257ZM172,265c-6.031,3.95-12.671,4.153-16,11q-1.5,14-3,28l33-28-2-3C178.67,270.328,178.487,266.822,172,265ZM2208,589c-27,22.787-8.73,29.116-23,56l33-23C2215.21,608.749,2221.33,592.374,2208,589Zm-32,42c-16.55,49.072-72.88,105.208-111,135-19.67,15.375-38.18,33.333-59,48-70.21,49.464-152.65,87.165-238,121-58.23,23.083-121.1,34.584-183,56,0.33,1.666.67,3.333,1,5,8.17,0.666,13.27,3.876,16,10,8.87,29.43-3.94,43.04-17,58v1h4c47.97-15.2,96.54-24.43,142-42,171.36-66.219,356.87-151.341,434-310-6.62-10.32-7.79-41.121-2-55C2166.79,648.922,2181.6,646.37,2176,631Zm46,1q-14.505,11.5-29,23-10.005,4-20,8c-5.61,6.239-3.32,27.634-3,39l16,4c22.13-15.65,40.07-18.146,40-57C2225.99,640.77,2227.06,635.282,2222,632ZM55,649c-10.9,6.745-19.495,13.846-17,31l1,2c10.4,0.654,20.878,5.686,30,1-2.858-11.414-1.994-25.581-7-34H55ZM35,694l-3,4q-1,10.5-2,21c21.322,4.821,38.318,8.655,58-1,1.332-8.734-1.249-17.479-7-22C67.107,698.717,49.974,694.579,35,694Zm2174,11c-6.29,6.258-17.28,10.436-28,12q-9.495,98.99-19,198h10c1.67-1.333,3.33-2.667,5-4,5.22-13.121,15.01-29.506,19-44q4.995-54,10-108C2206.85,746.616,2215.51,712.875,2209,705ZM95,727l-12,7c2.9,67.7,50.506,108.505,90,140,115.4,92.028,255.678,157.02,424,197v-8c-8.587-23.62-30.071-33.09-4-61q-0.5-3.5-1-7c-38.2-5.478-76.92-20.058-111-32-107.884-37.8-202.092-79.661-286-140-25.777-18.536-55.175-42.384-75-67Zm-52,8q6,67.493,12,135c3.622,23.274.029,45.475,11,60a64.619,64.619,0,0,0,22,1v-8q-8.5-92.991-17-186Zm2123,6c-9.69,25-31.72,44.715-47,65,2.43,12.609,30.32,18.809,40,25Q2162.5,786,2166,741ZM90,808q1,17,2,34h1l23-2-4-4Zm2014,13c-14.22,19.031-36.98,38.924-57,52l6,7c17.08,8.153,23.73,25.224,49,26C2103.31,896.222,2105.48,821.953,2104,821Zm13,3q-0.495,13.5-1,27l39,17q1.005-15,2-30C2144.64,843.713,2127.5,828.48,2117,824ZM95,876l46-10v-1l-14-14h-1c-9.525,1.185-23.134,2.376-33-1Zm2059,4c-17.61-.457-24.85-11.248-39-15q-0.495,19-1,38h1c15.29-5.014,23.33,4.942,36,8Q2152.5,895.5,2154,880ZM148,904q-2.5-12.5-5-25l-47,9,4,38C116.242,918.886,128.323,905.325,148,904Zm8-24c0.478,3.774,3.805,27.233,5,28,7.969,6.44,28.216,3.589,24-5Zm1881,1q-16.005,11.5-32,23c1.39,1.922.1,0.6,2,2,13.34,16.8,40.82,34.918,66,39l33-4c14.37,2.761,26.19,12.883,42,16,43.17,8.511,64.42-32.817,55-68-0.67.333-1.33,0.667-2,1-3.92,24.263-22.76,47.248-54,35q-10.995-5.5-22-11c-15.33-1.828-28.63,10.1-47,0C2062.44,905.448,2052.07,888.878,2037,881ZM37,884c-19.709,40,1.126,100.3,53,91,21-3.764,35.578-18.961,54-26,12.3-4.7,22.574,3.033,37,0,15.146-3.185,24.745-13.633,36-21l-1-2-18-12c-25.473,22.484-36.613-2.235-56,3-19.48,5.259-51.425,43.947-83,23C36.391,925,48.953,901.312,37,884Zm2061,71c-47.16,4.419-80.44-14.757-102-44-39.12,20.406-75.52,48.022-117,67-90.78,41.54-187.43,76.73-294,103v185c4.9,12.92,15.42,17.47,19,38,3.86,22.1-9.72,27.91-19,37q-0.495,183.48-1,367c34.52-5.38,68.84-22.89,99-35,79.46-31.89,151.15-68.72,216-115,26.19-18.69,48.37-42.17,73-62,23.64-19.04,83-83.2,93-112Q2081.5,1169.515,2098,955ZM613,1327c-15.874-.39-32.743-5.53-31-23,2.363-23.7,20.214-33.76,26-51q-5.5-83.49-11-167-41.5-11.505-83-23c-75.367-23.83-143.747-49.61-208-83-16.421-8.534-76.174-47.424-83-39-18.154,7.744-29.067,24.6-57,21v10q12.5,160.485,25,321,4,59.49,8,119c7.137,22.43,67.607,80.4,87,96,85.421,68.71,160.148,117.66,271,163,24.432,9.99,51.237,23.72,79,29v-7Zm941-380-9,11c-2.72,9.565-2.82,48.77,2,54,8.49,3.83,22.51-.88,28-4q-0.495-26.5-1-53-4.005-4-8-8h-12Zm-941,3c-3.169,2.487-5.9,3.272-8,7-6.588,9.6-3.939,39.6,0,53,8.387,1.11,22.82,3.2,27-3,8.387-19.649-3.869-48-11-57h-8Zm1497,7q-6.495,89-13,178c13.43,3.47,20.37,15.5,30,23v-2q9-92.985,18-186A128.77,128.77,0,0,1,2110,957ZM150,961l-46,25q9,102.99,18,206v-2c8.038-10.12,13.983-21.24,22-31l23-21q-7-88.485-14-177h-3Zm2034,4c-5.46,5.275-16.09,6.272-27,6q-22.5,232.98-45,466l30-15q16.5-168.48,33-337,4.005-43.5,8-87C2183.56,988.917,2188.42,970.427,2184,965ZM93,988l-29-3v5q12.5,145.98,25,292c9.774,62.45-9.58,96.23,38,126Q110,1198.015,93,988Zm1441,18c-0.67,1-1.33,2-2,3h3C1534.67,1008,1534.33,1007,1534,1006Zm-23,1q-21,4-42,8c-48.66,11.19-99.99,13.06-153,22q-63.495,5.505-127,11-25.5.495-51,1H1009q-25.5-.495-51-1c-50.028-7.91-102.79-5.46-150-14-51.123-9.25-102.773-9.35-149-24,10.011,33.46-10.557,34.39-11,61q0.5,6,1,12c53.621,7.73,110.838,17.79,167,28,52.566,9.56,106.157,3.16,162,12,28.63,4.53,83.83,6.74,110,2q41.49-.495,83-1c63.62-10.26,129.78-5.73,189-17s121.67-10.4,174-30v-9c-24.62-3.91-27.03-35.76-20-61h-3Zm80,2c-11.02,19.28-54.09,19.14-69,4-0.67.33-1.33,0.67-2,1,0.93,15.3,1.45,31.6,8,41C1557.86,1064.99,1615.16,1053.03,1591,1009Zm-997,4c-13.45,55.83,73.614,43.28,57,7-1-1.33-2-2.67-3-4C624.938,1023.43,613.505,1023.73,594,1013Zm14,47q6,101.985,12,204c8.941,2.73,22.912,8.99,31,1-8.941-10.32-2.612-42.26-5-58q-5-72.99-10-146C627.049,1062,616.147,1062.39,608,1060Zm937,218q13.995,1.005,28,2,0.495-106.485,1-213l-29,3v208Zm-15-185q-19.5,4.005-39,8c-47.24,10.48-96.61,13.98-148,23-79.35,13.92-167.56,15.99-258,16q-51.99-1.005-104-2l-137-9-112-15-82-15q3.5,52.995,7,106,10-10.005,20-20c18.8,0.25,46.171,8.77,60,17,0.182,36.79-55.447,72.85-74,98q13.5,209.475,27,419c15.769-3.53,67.451,15.34,86,20,57.322,14.41,118.286,17.61,180,28q53.495,3.495,107,7h49c35.89,5.11,105.67,1.09,143-5q30.99-2.505,62-5c74.22-13.04,149.61-18.42,215-41q0.495-140.49,1-281c0-25.17,5.55-105.54-2-122-15.56-8.11-53.32-70.17-65-88-6.21-9.48-16.25-20.94-9-32,12.78-3.88,52.19-21.83,65-17l11,14h1V1093h-4Zm566,56q-2.505,33.99-5,68c8.6,6.83,19.39,19.56,24,30h1C2120.31,1204.99,2137.96,1166.01,2096,1149Zm-1929,7c-32.037,29.96-48.875,50.8-39,112,3.146,19.5,2.217,33.05,13,44-5.521-36.84,10.131-95.33,30-112-0.321,6-.461,12.85,2,16Zm513,39q-11,13.005-22,26c0.3,19.19,5.273,45.07-1,56-21.24,7.01-29.477-4.53-49-6-4.752,12.93-16.319,21.79-13,40,15.035,6.83,31.035,2.09,43-5,15.839-9.39,81.062-77.78,90-94-0.334-.67-0.667-1.33-1-2Zm905,95c-23.55,2.31-39.06.78-52-15,0.72-38.78,3.71-61.87-18-79q-24.495,6.495-49,13c13.87,26.81,53.66,86.59,76,104,8.05,6.27,24.65,20.36,41,14,3.56-1.42,4.21-1.78,6-5,7.19-11.67,1.42-27.43-3-38h-1v6ZM172,1220c-25.492,54.79-33.588,124.91,12,168Q178,1304.015,172,1220Zm1918,11q-4.995,60.99-10,122c7.7-6.32,34.63-73.14,31-90C2108.26,1250.29,2097.93,1239.09,2090,1231ZM650,1311q-13,7.005-26,14,14.5,229.98,29,460c9.881,1.14,20.027.85,28-2q-11-174.99-22-350C655.859,1412.36,657.439,1319.32,650,1311Zm882,529c-19.05-.67-44.93-7.53-54-19,1.6-2.7.34-1.38,3-3,17.77-5.93,41.23,13.74,66,10,13.88-2.09,28.02-2.09,39-7,12.01-5.38,19.89-19.28,37-17,0.33,0.67.67,1.33,1,2-0.33,2-.67,4-1,6q-19.995,12.495-40,25v15c55.42-9.13,109.76-37.32,157-58,132.85-58.15,278.53-153.89,342-280-6.14-.02-8.42-1.02-12-3-4.28-16.89.16-44.45,4-61,7.1-4.68,14.95-6.61,26-8q4.995-59.49,10-119c-10.95,56.12-62.75,110.12-94,149-75.96,94.5-195.83,160.36-315,211q-58.5,20.505-117,41v20c9.92-1.93,22.45-11.03,32-8,4.01,1.93,4.15,3.01,6,7-5.8,14.95-15.84,38.04-28,47-31.52,23.23-91.43,18.91-114-11v-3c20.11-17.24,24.71-10.61,52-19v-18q-43.5,10.005-87,20-64.5,10.005-129,20-46.995,3.495-94,7c-32.35,5.08-70.05,3-106,3-104.27.01-201.912-6.91-289-26-46.338-10.16-96.485-13.1-137-31q1,11.505,2,23c15.985,0.74,36.19,5.45,48,12,1.177,5.05,1.888,8.93,1,14-46.188,22.62-104.315,28.6-128-17-4.929-9.49-10.449-16.36-6-28q15.5,2.505,31,5-0.5-12.495-1-25c-48.1-8.07-116.523-42.4-157-63-123.382-62.79-232.277-135.84-304-250-15.921-25.34-34.388-52.87-43-85h-1c-0.383,20.7,8.835,93.61,18,101,10.16,5.57,25.131,2.52,37,8,13.881,6.41,9.8,45.05,6,60a41.158,41.158,0,0,1-16,7c9.271,40.54,61,89.27,85,119,87.236,108.07,239.622,170.42,381,226,0.666-.67,1.333-1.33,2-2-0.333-2.67-.667-5.33-1-8-16.068-7.51-28.839-16.64-38-31,0.333-1.33.667-2.67,1-4h1c10.168,3.43,14.146,10.9,22,16,22.084,14.34,65.129,18.22,91,6,4.672,2.05,5.372,1.56,6,8-9.212,7.61-15.4,8.18-30,12,3.466,5.8,3.154,13.04,1,20h2c40.465,20.12,112.1,25.68,162,36,156.69,32.4,388.21,32.87,545,0,42.81-8.98,86.85-11.51,125-26v-26Zm13-508q-0.495,162.48-1,325-0.495,48.495-1,97c-0.78,13.03,2.4,31.31-2,41,13.06-.32,21.47-4.7,31-8q0.495-223.485,1-447C1561.54,1338.68,1553.88,1335.05,1545,1332Zm537,168c47.36,1.41,127.2-57.8,74-96h-1q-0.495,12-1,24c-23.05,12.09-38.36,21.73-70,28Q2083,1477.99,2082,1500ZM99,1405q1.5,18,3,36c9.555,21.14,46.953,45.04,79,39l1-3c4.305-10.13,1.666-27.8,0-38C143.276,1437.28,122.7,1420.85,99,1405Zm5,60c-1.074,27.01,5.1,80.06,33,60q-2-21-4-42C120.726,1480.48,112.616,1471.46,104,1465Zm2029,36q-13.995,6-28,12-1.005,7.995-2,16c5.77,4.05,11.73,6.88,21,5C2130.04,1529.14,2138.13,1512.85,2133,1501ZM616,1746a64.943,64.943,0,0,0,24,32h1q-1-12-2-24Q627.5,1750,616,1746Zm988,4-21,9q0.495,10.995,1,22l2-2C1592.17,1775.88,1604.7,1755.78,1604,1750Zm-912,18q0.5,6.495,1,13h1c8.421-2.1,18.131-2.46,24-7Zm838,2c-10.3,4.26-26.47,2.02-35,8v1c11.84,3.66,23.04,9.38,36,14C1532.75,1787.54,1533.12,1773.96,1530,1770Zm-845,66q-14.5-1.995-29-4v12q-0.5,6.495-1,13c3.524,2.76,5.444,4.88,10,7C681.125,1862.35,686.065,1853.12,685,1836Zm887,3q-14.505,1.005-29,2v31c2.99,7.83,5.3,10.83,13,14q6.495-1.995,13-4C1571.79,1870.6,1572.09,1854.48,1572,1839Z"/>
    <path class="cls-7" d="M750,669l13,14,16,3,15-2,15-7,12-9,12-9c10.5-7.5,15-9,15-9l14-5h16s7.483-2.039,18-4,27-5,27-5l35-15,310-121,712-266,144-51,15-9,2-7c0-16.5-5-26-5-26l-12-9h-13l-11,5L958,569l-77,25-36,26-9,6-22-5-29,3-25,14-12,19ZM2229,368L968,672l-19,6-44,21-30-4-18,1-7,3-12,5-11,4-13,12s-5.037,2.48-5,8,3,12,3,12,8.468,7.983,14,9,21,7,21,7l22-6,17-9,10-10,11-3a90.217,90.217,0,0,0,9-2c5.514-1.478,15,0,15,0l60-6,64-15L2166,434l77-17,9-10,1-11-3-12Z"/>
    <path id="SHAPE_copy_2" data-name="SHAPE copy 2" class="cls-6" d="M2117,127c25.43,0.824,48.02,37.863,24,55l-263,99L1081,579q-78.495,29-157,58c-20.444,7.109-53.185,7.389-72,16-6.588,3.015-19.025,23.51-33,30-20.136,9.351-60.738,12.406-71-9-13.647-27.647,38.775-65.427,69-60,29.518,5.3,53.436-16.491,78-29l166-62Q1588.94,325.02,2117,127Zm0,11L1187,487q-111.495,41.5-223,83c-46.379,18.071-96.3,29.529-128,62l-20-7c-23.817-4.686-70.177,18.63-62,42,2,5.7,8.664,7.228,15,9,38.319,10.716,55.486-14.131,74-32,57.541-.087,103.851-25.763,147-43q118.485-44.5,237-89l906-338C2135.87,158.863,2132.87,140.058,2117,138Zm109,225c33.86,0.013,44.91,44.211,21,57q-144.99,34.5-290,69-401.955,97.49-804,195L984,724l-75,8c-11.779,6.466-17.7,19.02-35,25-23.471,8.114-64.181,2.829-70-18-7.988-28.591,42.293-54.633,68-52l27,7c21.621-4.6,46.472-20.129,69-27q79.485-19,159-38Zm3,10Q1692.06,502.987,1155,633L962,677c-22.066,6.534-53.823,31.776-71,25-31.4-12.387-75.3,3.8-77,32,29.532,44.222,75.538-11.773,97-13,32.527,8.856,91.44-10.9,117-18l258-63,955-230C2244.63,395.326,2243.94,377.62,2229,373Z"/>
    <path id="SHAPE_copy_9" data-name="SHAPE copy 9" class="cls-5" d="M2137,160l6,1,6,5v5c-9.57,16.579-47.22,21.443-66,29-67.4,27.118-136.4,56.766-207,83-146.54,54.448-298.35,106.728-444,164-121.5,47.777-246.63,79.3-363,131-55.38,24.6-114.689,50.479-176,66l-45,5c-22.86,6.329-48.337,51.508-86,35l-17-14V659l2-1c14.248,1.049,20.085,16.064,36,12,24.846-6.345,38.462-32.333,62-38l42-4c60.527-15.446,115.07-44.015,169-65,50.63-19.7,99.39-35.741,147-56q43.5-14,87-28c29.27-12.446,60.77-28.5,90-40l52-14c59.41-21.607,120.33-40.758,181-63,98.65-36.166,201.85-74.223,299-113,55.82-22.279,110.48-44.661,164-66Zm109,237c7.17,0.474,9.87,2.812,14,6-0.13,4.37-.41,5.658-2,8-9.08,10.673-63.1,15.5-81,20-76.76,19.282-154.57,37.564-235,56-270.22,61.942-538.85,132.615-803,200L958,730c-15.658,3.361-35.343-2.581-50,0-39.682,6.987-50.336,53.021-99,8,0.215-4.514.707-5.391,2-8,15.612,0.532,31.857,9.984,49,6,17.066-3.967,27.246-20.024,46-24l27,2,48-7c69.82-15.846,141.2-34.179,208-54l146-34q72-20.5,144-41l191-43,142-37c111.23-25.929,225.63-46.353,332-78Z"/>
  </g>
</svg>
